<svg width="8" height="12" viewBox="0 0 8 12" fill="none" xmlns="http://www.w3.org/2000/svg">
<path fill-rule="evenodd" clip-rule="evenodd" d="M7.24839 0.351576C7.47335 0.57661 7.59973 0.881779 7.59973 1.19998C7.59973 1.51817 7.47335 1.82334 7.24839 2.04838L3.29679 5.99998L7.24839 9.95158C7.46698 10.1779 7.58793 10.481 7.5852 10.7957C7.58246 11.1103 7.45626 11.4113 7.23377 11.6338C7.01128 11.8562 6.7103 11.9825 6.39567 11.9852C6.08103 11.9879 5.77791 11.867 5.55159 11.6484L0.751588 6.84838C0.526623 6.62334 0.400245 6.31817 0.400245 5.99998C0.400245 5.68178 0.526623 5.37661 0.751588 5.15158L5.55159 0.351576C5.77662 0.126611 6.08179 0.000232697 6.39999 0.000232697C6.71818 0.000232697 7.02335 0.126611 7.24839 0.351576Z" fill="white"/>
</svg>
