<svg width="30" height="30" viewBox="0 0 30 30" fill="none" xmlns="http://www.w3.org/2000/svg">
<path d="M29.7077 12.062H28.4995V11.9998H14.9997V17.9997H23.4768C22.2401 21.4924 18.9169 23.9996 14.9997 23.9996C10.0296 23.9996 5.9999 19.9699 5.9999 14.9997C5.9999 10.0296 10.0296 5.9999 14.9997 5.9999C17.294 5.9999 19.3812 6.86538 20.9704 8.27911L25.2131 4.03643C22.5341 1.53972 18.9507 0 14.9997 0C6.71613 0 0 6.71613 0 14.9997C0 23.2833 6.71613 29.9995 14.9997 29.9995C23.2833 29.9995 29.9995 23.2833 29.9995 14.9997C29.9995 13.994 29.896 13.0123 29.7077 12.062Z" fill="#FFC107"/>
<path d="M1.72852 8.01811L6.65668 11.6323C7.99016 8.33086 11.2196 5.9999 14.9988 5.9999C17.293 5.9999 19.3802 6.86538 20.9694 8.27911L25.2121 4.03643C22.5332 1.53972 18.9497 0 14.9988 0C9.23739 0 4.24097 3.25269 1.72852 8.01811Z" fill="#FF3D00"/>
<path d="M15 30.0001C18.8744 30.0001 22.3949 28.5173 25.0566 26.1061L20.4142 22.1777C18.8576 23.3615 16.9556 24.0017 15 24.0002C11.0986 24.0002 7.78588 21.5125 6.5379 18.0408L1.64648 21.8095C4.12894 26.6671 9.17035 30.0001 15 30.0001Z" fill="#4CAF50"/>
<path d="M29.7078 12.062H28.4995V11.9998H14.9998V17.9997H23.4769C22.8853 19.6619 21.8197 21.1145 20.4117 22.1778L20.4139 22.1763L25.0563 26.1048C24.7278 26.4033 29.9995 22.4996 29.9995 14.9997C29.9995 13.994 29.896 13.0122 29.7078 12.062Z" fill="#1976D2"/>
</svg>
