<svg width="48" height="48" viewBox="0 0 48 48" fill="none" xmlns="http://www.w3.org/2000/svg">
<rect width="48" height="48" rx="24" fill="#1D9BF0"/>
<path d="M19.608 36.66C30.252 36.66 36.072 27.84 36.072 20.196C36.072 19.944 36.072 19.692 36.06 19.452C37.188 18.636 38.172 17.616 38.952 16.452C37.92 16.908 36.804 17.22 35.628 17.364C36.828 16.644 37.74 15.516 38.172 14.16C37.056 14.82 35.82 15.3 34.5 15.564C33.444 14.436 31.944 13.74 30.276 13.74C27.084 13.74 24.492 16.332 24.492 19.524C24.492 19.98 24.54 20.424 24.648 20.844C19.836 20.604 15.576 18.3 12.72 14.796C12.228 15.648 11.94 16.644 11.94 17.7C11.94 19.704 12.96 21.48 14.52 22.512C13.572 22.488 12.684 22.224 11.904 21.792C11.904 21.816 11.904 21.84 11.904 21.864C11.904 24.672 13.896 27 16.548 27.54C16.068 27.672 15.552 27.744 15.024 27.744C14.652 27.744 14.292 27.708 13.932 27.636C14.664 29.94 16.8 31.608 19.332 31.656C17.352 33.204 14.856 34.128 12.144 34.128C11.676 34.128 11.22 34.104 10.764 34.044C13.296 35.7 16.344 36.66 19.608 36.66Z" fill="white"/>
</svg>
