<svg width="40" height="40" viewBox="0 0 40 40" fill="none" xmlns="http://www.w3.org/2000/svg">
<path fill-rule="evenodd" clip-rule="evenodd" d="M0.99707 39.0068L3.68212 29.2459C2.02564 26.3896 1.15455 23.1483 1.15554 19.8285C1.16053 9.44245 9.64822 0.992676 20.0794 0.992676C25.1415 0.994661 29.8917 2.95675 33.4648 6.51669C37.0369 10.0776 39.0043 14.8097 39.0023 19.8434C38.9983 30.2295 30.5086 38.6802 20.0794 38.6802C20.0784 38.6802 20.0794 38.6802 20.0794 38.6802H20.0715C16.905 38.6792 13.7924 37.8882 11.0286 36.3867L0.99707 39.0068Z" fill="white"/>
<path fill-rule="evenodd" clip-rule="evenodd" d="M0.996926 39.5026C0.865365 39.5026 0.73779 39.451 0.643106 39.3558C0.518521 39.2297 0.469684 39.0461 0.516528 38.8764L3.14676 29.3131C1.51619 26.429 0.656062 23.1539 0.658056 19.8292C0.662042 9.16819 9.37399 0.496094 20.0793 0.496094C25.272 0.498079 30.1507 2.51177 33.8175 6.166C37.4842 9.82122 39.5025 14.6783 39.5005 19.8431C39.4965 30.503 30.7836 39.1761 20.0793 39.1761C16.9009 39.1751 13.7564 38.3941 10.9657 36.9163L1.1235 39.4858C1.08164 39.4977 1.03978 39.5026 0.996926 39.5026Z" fill="white"/>
<path fill-rule="evenodd" clip-rule="evenodd" d="M20.0794 0.992457C25.1416 0.994442 29.8917 2.95653 33.4648 6.51647C37.0369 10.0774 39.0043 14.8094 39.0023 19.8432C38.9983 30.2293 30.5087 38.68 20.0794 38.68H20.0715C16.905 38.679 13.7924 37.8881 11.0286 36.3865L0.997086 39.0066L3.68213 29.2457C2.02566 26.3894 1.15456 23.1481 1.15556 19.8283C1.16054 9.44224 9.64823 0.992457 20.0794 0.992457ZM20.0794 0C9.10006 0 0.163865 8.8944 0.158881 19.8283C0.157885 23.1699 1.00506 26.4629 2.6117 29.3777L0.0352938 38.7455C-0.0583937 39.0879 0.0372871 39.4532 0.288449 39.7052C0.477818 39.8958 0.733963 40 0.997086 40C1.0818 40 1.16652 39.9891 1.25024 39.9673L10.905 37.4464C13.7236 38.9033 16.8831 39.6725 20.0715 39.6735C31.0588 39.6735 39.995 30.7781 40 19.8442C40.002 14.5455 37.9319 9.56332 34.1714 5.8158C30.409 2.06729 25.4047 0.00198491 20.0794 0Z" fill="#CFD8DC"/>
<path fill-rule="evenodd" clip-rule="evenodd" d="M31.2043 8.76542C28.2342 5.80592 24.2864 4.17531 20.0844 4.17432C11.4093 4.17432 4.35384 11.1969 4.34985 19.8293C4.34886 22.7878 5.18009 25.668 6.75483 28.162L7.12958 28.7545L5.53988 34.5316L11.493 32.9774L12.0681 33.3168C14.4821 34.744 17.2508 35.4982 20.0734 35.4992H20.0794C28.7485 35.4992 35.804 28.4756 35.8069 19.8422C35.8079 15.659 34.1744 11.7249 31.2043 8.76542Z" fill="#40C351"/>
<path fill-rule="evenodd" clip-rule="evenodd" d="M15.3491 11.9541C14.9953 11.1701 14.6225 11.1542 14.2847 11.1403C14.0086 11.1284 13.6936 11.1294 13.3787 11.1294C13.0637 11.1294 12.5514 11.2475 12.1179 11.7189C11.6843 12.1904 10.4624 13.3287 10.4624 15.6451C10.4624 17.9615 12.1568 20.2005 12.393 20.5141C12.6292 20.8277 15.6641 25.7334 20.47 27.6211C24.4637 29.1892 25.277 28.8775 26.1441 28.7991C27.0112 28.7207 28.9418 27.6608 29.3355 26.5611C29.7291 25.4615 29.7291 24.5196 29.6115 24.3231C29.4929 24.1266 29.178 24.0095 28.7056 23.7733C28.2331 23.5371 25.9079 22.3988 25.4743 22.242C25.0408 22.0852 24.7258 22.0067 24.4099 22.4782C24.0949 22.9486 23.189 24.0095 22.9129 24.3231C22.6368 24.6378 22.3607 24.6775 21.8883 24.4412C21.4159 24.205 19.8929 23.7088 18.086 22.105C16.6807 20.8575 15.7318 19.3162 15.4557 18.8448C15.1797 18.3744 15.4258 18.1193 15.6631 17.8841C15.8753 17.6727 16.1355 17.3343 16.3727 17.0593C16.6089 16.7844 16.6876 16.5879 16.8451 16.2743C17.0026 15.9597 16.9239 15.6848 16.8052 15.4496C16.6886 15.2134 15.7697 12.8851 15.3491 11.9541Z" fill="white"/>
</svg>
