<svg width="48" height="48" viewBox="0 0 48 48" fill="none" xmlns="http://www.w3.org/2000/svg">
<rect width="48" height="48" rx="24" fill="#FF0000"/>
<path d="M40.4381 15.7565C40.0427 14.2878 38.8847 13.1298 37.416 12.7344C34.7328 12 23.9999 12 23.9999 12C23.9999 12 13.267 12 10.5838 12.7061C9.14333 13.1015 7.95706 14.2878 7.56164 15.7565C6.85553 18.4397 6.85553 24.0039 6.85553 24.0039C6.85553 24.0039 6.85553 29.5963 7.56164 32.2513C7.95706 33.72 9.11508 34.878 10.5838 35.2734C13.2953 36.0078 23.9999 36.0078 23.9999 36.0078C23.9999 36.0078 34.7328 36.0078 37.416 35.3016C38.8847 34.9062 40.0427 33.7482 40.4381 32.2795C41.1443 29.5963 41.1443 24.0321 41.1443 24.0321C41.1443 24.0321 41.1725 18.4397 40.4381 15.7565Z" fill="white"/>
<path d="M20.5823 29.1444L29.5076 24.0039L20.5823 18.8634V29.1444Z" fill="#FF0000"/>
</svg>
