<svg width="32" height="32" viewBox="0 0 32 32" fill="none" xmlns="http://www.w3.org/2000/svg">
<path d="M16 3.19995C13.4539 3.19995 11.0121 4.21138 9.21179 6.01173C7.41144 7.81208 6.40001 10.2539 6.40001 12.8V18.5376L5.26881 19.6688C5.04512 19.8925 4.89279 20.1776 4.83108 20.4879C4.76937 20.7982 4.80106 21.1199 4.92213 21.4122C5.0432 21.7045 5.24822 21.9544 5.51128 22.1302C5.77434 22.306 6.08361 22.3999 6.40001 22.4H25.6C25.9164 22.3999 26.2257 22.306 26.4887 22.1302C26.7518 21.9544 26.9568 21.7045 27.0779 21.4122C27.199 21.1199 27.2307 20.7982 27.1689 20.4879C27.1072 20.1776 26.9549 19.8925 26.7312 19.6688L25.6 18.5376V12.8C25.6 10.2539 24.5886 7.81208 22.7882 6.01173C20.9879 4.21138 18.5461 3.19995 16 3.19995V3.19995ZM16 28.8C14.727 28.8 13.5061 28.2942 12.6059 27.3941C11.7057 26.4939 11.2 25.273 11.2 24H20.8C20.8 25.273 20.2943 26.4939 19.3941 27.3941C18.494 28.2942 17.2731 28.8 16 28.8Z" fill="#F5F6F8"/>
</svg>
