<svg width="147" height="50" viewBox="0 0 147 50" fill="none" xmlns="http://www.w3.org/2000/svg">
<rect width="147" height="50" rx="6" fill="#0F110C"/>
<g clip-path="url(#clip0_8_351)">
<path d="M28.7328 40.3823C28.0822 39.9494 27.5056 39.4146 27.0251 38.7983C26.4965 38.1622 26.0068 37.4948 25.5586 36.7997C24.5068 35.2588 23.682 33.5748 23.1094 31.7992C22.4216 29.7367 22.0885 27.7598 22.0885 25.8262C22.0885 23.6667 22.5556 21.7816 23.4693 20.1976C24.1466 18.9595 25.1424 17.9249 26.3537 17.2008C27.5276 16.4717 28.8764 16.0727 30.258 16.0458C30.7417 16.0458 31.2625 16.1159 31.8152 16.25C32.2123 16.3624 32.6959 16.5398 33.2868 16.7605C34.0386 17.0502 34.4521 17.2276 34.5924 17.2709C35.0327 17.4318 35.4029 17.5019 35.6938 17.5019C35.9144 17.5019 36.2259 17.4318 36.5796 17.3246C36.7786 17.2544 37.154 17.1307 37.6913 16.9007C38.2234 16.7068 38.6421 16.5408 38.9752 16.4171C39.4857 16.2665 39.9796 16.1273 40.42 16.0572C40.942 15.9749 41.4718 15.9531 41.9988 15.9922C42.9121 16.0519 43.8117 16.2454 44.6687 16.5666C46.0702 17.1307 47.2035 18.0114 48.0471 19.2633C47.6905 19.4831 47.3559 19.7365 47.0478 20.0202C46.3771 20.6148 45.8058 21.3129 45.3555 22.0879C44.767 23.1471 44.4619 24.3402 44.4697 25.5519C44.4913 27.04 44.8729 28.3507 45.6247 29.484C46.1774 30.324 46.8957 31.0423 47.7357 31.595C48.1657 31.8848 48.5359 32.0838 48.8907 32.2179C48.7246 32.7335 48.5472 33.2326 48.3379 33.7276C47.8631 34.8377 47.2877 35.9019 46.6188 36.907C46.0227 37.7722 45.5556 38.4167 45.2008 38.8457C44.6481 39.5006 44.116 40.0007 43.5787 40.3493C42.9878 40.7412 42.2896 40.9505 41.5801 40.9505C41.0996 40.9689 40.6192 40.9108 40.157 40.7783C39.76 40.6442 39.3671 40.4988 38.9803 40.3328C38.5783 40.1481 38.1637 39.992 37.7398 39.8656C36.6917 39.5964 35.5928 39.5947 34.5439 39.8605C34.1139 39.9842 33.7003 40.1286 33.292 40.306C32.7176 40.5473 32.336 40.7092 32.1153 40.7783C31.675 40.9072 31.2181 40.9876 30.7561 41.0144C30.0415 41.0144 29.3753 40.8102 28.7153 40.3967L28.7328 40.3823ZM38.1584 14.9981C37.2241 15.4652 36.3321 15.6642 35.4462 15.5993C35.307 14.7072 35.4462 13.7946 35.8165 12.7953C36.1317 11.9487 36.5974 11.1661 37.1911 10.4853C37.8181 9.76861 38.579 9.18116 39.431 8.7559C40.3385 8.28874 41.2037 8.03609 42.0308 7.99896C42.138 8.93328 42.0308 9.85212 41.6874 10.8452C41.3696 11.7231 40.9047 12.5405 40.3127 13.2625C39.7085 13.9801 38.9669 14.5699 38.1316 14.997L38.1584 14.9981Z" fill="white"/>
</g>
<path d="M61.9805 16H60.185V10.1818H62.06C62.6244 10.1818 63.1074 10.2983 63.5089 10.5312C63.9104 10.7623 64.2182 11.0947 64.4322 11.5284C64.6462 11.9602 64.7532 12.4773 64.7532 13.0795C64.7532 13.6856 64.6452 14.2074 64.4293 14.6449C64.2134 15.0805 63.899 15.4157 63.4862 15.6506C63.0733 15.8835 62.5714 16 61.9805 16ZM60.8896 15.375H61.935C62.4161 15.375 62.8147 15.2822 63.131 15.0966C63.4473 14.911 63.6831 14.6468 63.8384 14.304C63.9937 13.9612 64.0714 13.553 64.0714 13.0795C64.0714 12.6098 63.9947 12.2055 63.8413 11.8665C63.6879 11.5256 63.4587 11.2642 63.1538 11.0824C62.8488 10.8987 62.4691 10.8068 62.0146 10.8068H60.8896V15.375ZM67.6168 16.0909C67.2229 16.0909 66.8772 15.9972 66.5799 15.8097C66.2844 15.6222 66.0534 15.3598 65.8867 15.0227C65.7219 14.6856 65.6396 14.2917 65.6396 13.8409C65.6396 13.3864 65.7219 12.9896 65.8867 12.6506C66.0534 12.3116 66.2844 12.0483 66.5799 11.8608C66.8772 11.6733 67.2229 11.5795 67.6168 11.5795C68.0108 11.5795 68.3555 11.6733 68.6509 11.8608C68.9483 12.0483 69.1793 12.3116 69.3441 12.6506C69.5108 12.9896 69.5941 13.3864 69.5941 13.8409C69.5941 14.2917 69.5108 14.6856 69.3441 15.0227C69.1793 15.3598 68.9483 15.6222 68.6509 15.8097C68.3555 15.9972 68.0108 16.0909 67.6168 16.0909ZM67.6168 15.4886C67.9161 15.4886 68.1623 15.4119 68.3555 15.2585C68.5487 15.1051 68.6916 14.9034 68.7844 14.6534C68.8772 14.4034 68.9237 14.1326 68.9237 13.8409C68.9237 13.5492 68.8772 13.2775 68.7844 13.0256C68.6916 12.7737 68.5487 12.5701 68.3555 12.4148C68.1623 12.2595 67.9161 12.1818 67.6168 12.1818C67.3176 12.1818 67.0714 12.2595 66.8782 12.4148C66.685 12.5701 66.542 12.7737 66.4492 13.0256C66.3564 13.2775 66.31 13.5492 66.31 13.8409C66.31 14.1326 66.3564 14.4034 66.4492 14.6534C66.542 14.9034 66.685 15.1051 66.8782 15.2585C67.0714 15.4119 67.3176 15.4886 67.6168 15.4886ZM71.4577 16L70.1282 11.6364H70.8327L71.7759 14.9773H71.8214L72.7532 11.6364H73.4691L74.3896 14.9659H74.435L75.3782 11.6364H76.0827L74.7532 16H74.0941L73.1396 12.6477H73.0714L72.1168 16H71.4577ZM77.6396 13.375V16H76.9691V11.6364H77.6168V12.3182H77.6737C77.7759 12.0966 77.9312 11.9186 78.1396 11.7841C78.3479 11.6477 78.6168 11.5795 78.9464 11.5795C79.2418 11.5795 79.5004 11.6402 79.7219 11.7614C79.9435 11.8807 80.1159 12.0625 80.239 12.3068C80.3621 12.5492 80.4237 12.8561 80.4237 13.2273V16H79.7532V13.2727C79.7532 12.9299 79.6642 12.6629 79.4862 12.4716C79.3081 12.2784 79.0638 12.1818 78.7532 12.1818C78.5392 12.1818 78.3479 12.2282 78.1793 12.321C78.0127 12.4138 77.881 12.5492 77.7844 12.7273C77.6879 12.9053 77.6396 13.1212 77.6396 13.375ZM82.3192 10.1818V16H81.6488V10.1818H82.3192ZM85.32 16.0909C84.926 16.0909 84.5804 15.9972 84.283 15.8097C83.9876 15.6222 83.7565 15.3598 83.5898 15.0227C83.4251 14.6856 83.3427 14.2917 83.3427 13.8409C83.3427 13.3864 83.4251 12.9896 83.5898 12.6506C83.7565 12.3116 83.9876 12.0483 84.283 11.8608C84.5804 11.6733 84.926 11.5795 85.32 11.5795C85.7139 11.5795 86.0586 11.6733 86.354 11.8608C86.6514 12.0483 86.8825 12.3116 87.0472 12.6506C87.2139 12.9896 87.2972 13.3864 87.2972 13.8409C87.2972 14.2917 87.2139 14.6856 87.0472 15.0227C86.8825 15.3598 86.6514 15.6222 86.354 15.8097C86.0586 15.9972 85.7139 16.0909 85.32 16.0909ZM85.32 15.4886C85.6192 15.4886 85.8654 15.4119 86.0586 15.2585C86.2518 15.1051 86.3948 14.9034 86.4876 14.6534C86.5804 14.4034 86.6268 14.1326 86.6268 13.8409C86.6268 13.5492 86.5804 13.2775 86.4876 13.0256C86.3948 12.7737 86.2518 12.5701 86.0586 12.4148C85.8654 12.2595 85.6192 12.1818 85.32 12.1818C85.0207 12.1818 84.7745 12.2595 84.5813 12.4148C84.3881 12.5701 84.2451 12.7737 84.1523 13.0256C84.0595 13.2775 84.0131 13.5492 84.0131 13.8409C84.0131 14.1326 84.0595 14.4034 84.1523 14.6534C84.2451 14.9034 84.3881 15.1051 84.5813 15.2585C84.7745 15.4119 85.0207 15.4886 85.32 15.4886ZM89.6048 16.1023C89.3282 16.1023 89.0773 16.0502 88.8519 15.946C88.6265 15.84 88.4476 15.6875 88.315 15.4886C88.1824 15.2879 88.1161 15.0455 88.1161 14.7614C88.1161 14.5114 88.1654 14.3087 88.2638 14.1534C88.3623 13.9962 88.494 13.8731 88.6587 13.7841C88.8235 13.6951 89.0053 13.6288 89.2042 13.5852C89.4049 13.5398 89.6067 13.5038 89.8093 13.4773C90.0745 13.4432 90.2894 13.4176 90.4542 13.4006C90.6209 13.3816 90.7421 13.3504 90.8178 13.3068C90.8955 13.2633 90.9343 13.1875 90.9343 13.0795V13.0568C90.9343 12.7765 90.8576 12.5587 90.7042 12.4034C90.5527 12.2481 90.3226 12.1705 90.0138 12.1705C89.6938 12.1705 89.4428 12.2405 89.261 12.3807C89.0792 12.5208 88.9513 12.6705 88.8775 12.8295L88.2411 12.6023C88.3548 12.3371 88.5063 12.1307 88.6957 11.983C88.887 11.8333 89.0953 11.7292 89.3207 11.6705C89.5479 11.6098 89.7714 11.5795 89.9911 11.5795C90.1313 11.5795 90.2923 11.5966 90.4741 11.6307C90.6578 11.6629 90.8349 11.7301 91.0053 11.8324C91.1777 11.9347 91.3207 12.089 91.4343 12.2955C91.5479 12.5019 91.6048 12.7784 91.6048 13.125V16H90.9343V15.4091H90.9002C90.8548 15.5038 90.779 15.6051 90.6729 15.7131C90.5669 15.821 90.4258 15.9129 90.2496 15.9886C90.0735 16.0644 89.8585 16.1023 89.6048 16.1023ZM89.707 15.5C89.9722 15.5 90.1957 15.4479 90.3775 15.3438C90.5612 15.2396 90.6995 15.1051 90.7923 14.9403C90.887 14.7756 90.9343 14.6023 90.9343 14.4205V13.8068C90.9059 13.8409 90.8434 13.8722 90.7468 13.9006C90.6521 13.9271 90.5423 13.9508 90.4173 13.9716C90.2942 13.9905 90.1739 14.0076 90.0565 14.0227C89.9409 14.036 89.8472 14.0473 89.7752 14.0568C89.601 14.0795 89.4381 14.1165 89.2866 14.1676C89.137 14.2169 89.0157 14.2917 88.9229 14.392C88.832 14.4905 88.7866 14.625 88.7866 14.7955C88.7866 15.0284 88.8728 15.2045 89.0451 15.3239C89.2193 15.4413 89.44 15.5 89.707 15.5ZM94.4762 16.0909C94.1126 16.0909 93.7915 15.9991 93.5131 15.8153C93.2347 15.6297 93.0169 15.3684 92.8597 15.0312C92.7025 14.6922 92.6239 14.2917 92.6239 13.8295C92.6239 13.3712 92.7025 12.9735 92.8597 12.6364C93.0169 12.2992 93.2357 12.0388 93.516 11.8551C93.7963 11.6714 94.1201 11.5795 94.4876 11.5795C94.7717 11.5795 94.9961 11.6269 95.1609 11.7216C95.3275 11.8144 95.4544 11.9205 95.5415 12.0398C95.6306 12.1572 95.6997 12.2538 95.7489 12.3295H95.8058V10.1818H96.4762V16H95.8285V15.3295H95.7489C95.6997 15.4091 95.6296 15.5095 95.5387 15.6307C95.4478 15.75 95.3181 15.857 95.1495 15.9517C94.9809 16.0445 94.7565 16.0909 94.4762 16.0909ZM94.5671 15.4886C94.8361 15.4886 95.0633 15.4186 95.2489 15.2784C95.4345 15.1364 95.5756 14.9403 95.6722 14.6903C95.7688 14.4384 95.8171 14.1477 95.8171 13.8182C95.8171 13.4924 95.7698 13.2074 95.6751 12.9631C95.5804 12.7169 95.4402 12.5256 95.2546 12.3892C95.069 12.2509 94.8398 12.1818 94.5671 12.1818C94.283 12.1818 94.0463 12.2547 93.8569 12.4006C93.6694 12.5445 93.5283 12.7405 93.4336 12.9886C93.3408 13.2348 93.2944 13.5114 93.2944 13.8182C93.2944 14.1288 93.3417 14.411 93.4364 14.6648C93.533 14.9167 93.6751 15.1174 93.8626 15.267C94.052 15.4148 94.2868 15.4886 94.5671 15.4886ZM101.82 16.0909C101.426 16.0909 101.08 15.9972 100.783 15.8097C100.488 15.6222 100.257 15.3598 100.09 15.0227C99.9251 14.6856 99.8427 14.2917 99.8427 13.8409C99.8427 13.3864 99.9251 12.9896 100.09 12.6506C100.257 12.3116 100.488 12.0483 100.783 11.8608C101.08 11.6733 101.426 11.5795 101.82 11.5795C102.214 11.5795 102.559 11.6733 102.854 11.8608C103.151 12.0483 103.382 12.3116 103.547 12.6506C103.714 12.9896 103.797 13.3864 103.797 13.8409C103.797 14.2917 103.714 14.6856 103.547 15.0227C103.382 15.3598 103.151 15.6222 102.854 15.8097C102.559 15.9972 102.214 16.0909 101.82 16.0909ZM101.82 15.4886C102.119 15.4886 102.365 15.4119 102.559 15.2585C102.752 15.1051 102.895 14.9034 102.988 14.6534C103.08 14.4034 103.127 14.1326 103.127 13.8409C103.127 13.5492 103.08 13.2775 102.988 13.0256C102.895 12.7737 102.752 12.5701 102.559 12.4148C102.365 12.2595 102.119 12.1818 101.82 12.1818C101.521 12.1818 101.275 12.2595 101.081 12.4148C100.888 12.5701 100.745 12.7737 100.652 13.0256C100.56 13.2775 100.513 13.5492 100.513 13.8409C100.513 14.1326 100.56 14.4034 100.652 14.6534C100.745 14.9034 100.888 15.1051 101.081 15.2585C101.275 15.4119 101.521 15.4886 101.82 15.4886ZM105.491 13.375V16H104.821V11.6364H105.468V12.3182H105.525C105.627 12.0966 105.783 11.9186 105.991 11.7841C106.199 11.6477 106.468 11.5795 106.798 11.5795C107.093 11.5795 107.352 11.6402 107.574 11.7614C107.795 11.8807 107.967 12.0625 108.091 12.3068C108.214 12.5492 108.275 12.8561 108.275 13.2273V16H107.605V13.2727C107.605 12.9299 107.516 12.6629 107.338 12.4716C107.16 12.2784 106.915 12.1818 106.605 12.1818C106.391 12.1818 106.199 12.2282 106.031 12.321C105.864 12.4138 105.733 12.5492 105.636 12.7273C105.539 12.9053 105.491 13.1212 105.491 13.375ZM113.648 11.6364V12.2045H111.387V11.6364H113.648ZM112.046 10.5909H112.716V14.75C112.716 14.9394 112.744 15.0814 112.799 15.1761C112.855 15.2689 112.927 15.3314 113.015 15.3636C113.104 15.3939 113.197 15.4091 113.296 15.4091C113.37 15.4091 113.43 15.4053 113.478 15.3977C113.525 15.3883 113.563 15.3807 113.591 15.375L113.728 15.9773C113.682 15.9943 113.619 16.0114 113.537 16.0284C113.456 16.0473 113.353 16.0568 113.228 16.0568C113.038 16.0568 112.853 16.0161 112.671 15.9347C112.491 15.8532 112.341 15.7292 112.222 15.5625C112.105 15.3958 112.046 15.1856 112.046 14.9318V10.5909ZM115.421 13.375V16H114.75V10.1818H115.421V12.3182H115.478C115.58 12.0928 115.733 11.9138 115.938 11.7812C116.144 11.6468 116.419 11.5795 116.762 11.5795C117.059 11.5795 117.319 11.6392 117.543 11.7585C117.766 11.8759 117.94 12.0568 118.063 12.3011C118.188 12.5436 118.25 12.8523 118.25 13.2273V16H117.58V13.2727C117.58 12.9261 117.49 12.6581 117.31 12.4688C117.132 12.2775 116.885 12.1818 116.569 12.1818C116.349 12.1818 116.152 12.2282 115.978 12.321C115.805 12.4138 115.669 12.5492 115.569 12.7273C115.47 12.9053 115.421 13.1212 115.421 13.375ZM121.306 16.0909C120.886 16.0909 120.523 15.9981 120.218 15.8125C119.915 15.625 119.681 15.3636 119.517 15.0284C119.354 14.6913 119.272 14.2992 119.272 13.8523C119.272 13.4053 119.354 13.0114 119.517 12.6705C119.681 12.3277 119.911 12.0606 120.204 11.8693C120.5 11.6761 120.844 11.5795 121.238 11.5795C121.466 11.5795 121.69 11.6174 121.912 11.6932C122.133 11.7689 122.335 11.892 122.517 12.0625C122.699 12.2311 122.843 12.4545 122.951 12.733C123.059 13.0114 123.113 13.3542 123.113 13.7614V14.0455H119.75V13.4659H122.431C122.431 13.2197 122.382 13 122.284 12.8068C122.187 12.6136 122.049 12.4612 121.869 12.3494C121.691 12.2377 121.481 12.1818 121.238 12.1818C120.971 12.1818 120.74 12.2481 120.545 12.3807C120.352 12.5114 120.203 12.6818 120.099 12.892C119.995 13.1023 119.943 13.3277 119.943 13.5682V13.9545C119.943 14.2841 120 14.5634 120.113 14.7926C120.229 15.0199 120.389 15.1932 120.593 15.3125C120.798 15.4299 121.036 15.4886 121.306 15.4886C121.483 15.4886 121.642 15.464 121.784 15.4148C121.928 15.3636 122.052 15.2879 122.156 15.1875C122.26 15.0852 122.341 14.9583 122.397 14.8068L123.045 14.9886C122.977 15.2083 122.862 15.4015 122.701 15.5682C122.54 15.733 122.342 15.8617 122.105 15.9545C121.868 16.0455 121.602 16.0909 121.306 16.0909Z" fill="white"/>
<path d="M61.7896 36H59.8209L63.4054 25.8182H65.6824L69.2718 36H67.3031L64.5836 27.9062H64.5041L61.7896 36ZM61.8542 32.0078H67.2236V33.4893H61.8542V32.0078ZM70.6034 38.8636V28.3636H72.3733V29.6264H72.4777C72.5705 29.4408 72.7014 29.2436 72.8704 29.0348C73.0395 28.8227 73.2682 28.642 73.5565 28.4929C73.8449 28.3404 74.2128 28.2642 74.6602 28.2642C75.2502 28.2642 75.7821 28.415 76.2561 28.7166C76.7334 29.0149 77.1112 29.4574 77.3896 30.044C77.6713 30.6274 77.8122 31.3433 77.8122 32.1918C77.8122 33.0303 77.6746 33.7429 77.3996 34.3295C77.1245 34.9162 76.7499 35.3636 76.276 35.6719C75.802 35.9801 75.2651 36.1342 74.6652 36.1342C74.2277 36.1342 73.8648 36.0613 73.5764 35.9155C73.288 35.7696 73.056 35.594 72.8804 35.3885C72.708 35.1797 72.5738 34.9825 72.4777 34.7969H72.4031V38.8636H70.6034ZM72.3683 32.1818C72.3683 32.6757 72.4379 33.1082 72.5771 33.4794C72.7196 33.8506 72.9235 34.1406 73.1886 34.3494C73.4571 34.5549 73.7819 34.6577 74.163 34.6577C74.5608 34.6577 74.8939 34.5516 75.1623 34.3395C75.4308 34.1241 75.633 33.8307 75.7689 33.4595C75.9081 33.085 75.9777 32.6591 75.9777 32.1818C75.9777 31.7079 75.9097 31.2869 75.7738 30.919C75.638 30.5511 75.4358 30.2628 75.1673 30.054C74.8988 29.8452 74.5641 29.7408 74.163 29.7408C73.7786 29.7408 73.4521 29.8419 73.1836 30.044C72.9152 30.2462 72.7113 30.5296 72.5721 30.8942C72.4362 31.2588 72.3683 31.688 72.3683 32.1818ZM79.4234 38.8636V28.3636H81.1933V29.6264H81.2977C81.3905 29.4408 81.5214 29.2436 81.6904 29.0348C81.8595 28.8227 82.0882 28.642 82.3765 28.4929C82.6649 28.3404 83.0328 28.2642 83.4802 28.2642C84.0702 28.2642 84.6021 28.415 85.0761 28.7166C85.5534 29.0149 85.9312 29.4574 86.2096 30.044C86.4913 30.6274 86.6322 31.3433 86.6322 32.1918C86.6322 33.0303 86.4946 33.7429 86.2196 34.3295C85.9445 34.9162 85.5699 35.3636 85.096 35.6719C84.622 35.9801 84.0851 36.1342 83.4852 36.1342C83.0477 36.1342 82.6848 36.0613 82.3964 35.9155C82.108 35.7696 81.876 35.594 81.7004 35.3885C81.528 35.1797 81.3938 34.9825 81.2977 34.7969H81.2231V38.8636H79.4234ZM81.1883 32.1818C81.1883 32.6757 81.2579 33.1082 81.3971 33.4794C81.5396 33.8506 81.7435 34.1406 82.0086 34.3494C82.2771 34.5549 82.6019 34.6577 82.983 34.6577C83.3808 34.6577 83.7139 34.5516 83.9823 34.3395C84.2508 34.1241 84.453 33.8307 84.5889 33.4595C84.7281 33.085 84.7977 32.6591 84.7977 32.1818C84.7977 31.7079 84.7297 31.2869 84.5938 30.919C84.458 30.5511 84.2558 30.2628 83.9873 30.054C83.7188 29.8452 83.3841 29.7408 82.983 29.7408C82.5986 29.7408 82.2721 29.8419 82.0036 30.044C81.7352 30.2462 81.5313 30.5296 81.3921 30.8942C81.2562 31.2588 81.1883 31.688 81.1883 32.1818ZM97.399 28.6172C97.3526 28.183 97.157 27.8449 96.8123 27.603C96.4709 27.361 96.0268 27.2401 95.4799 27.2401C95.0955 27.2401 94.7657 27.2981 94.4906 27.4141C94.2155 27.5301 94.005 27.6875 93.8592 27.8864C93.7134 28.0852 93.6388 28.3123 93.6355 28.5675C93.6355 28.7796 93.6835 28.9635 93.7797 29.1193C93.8791 29.2751 94.0133 29.4077 94.1824 29.517C94.3514 29.6231 94.5387 29.7126 94.7441 29.7855C94.9496 29.8584 95.1568 29.9197 95.3656 29.9695L96.3201 30.2081C96.7046 30.2976 97.0742 30.4186 97.4288 30.571C97.7868 30.7235 98.1066 30.9157 98.3883 31.1477C98.6734 31.3797 98.8987 31.6598 99.0645 31.9879C99.2302 32.3161 99.313 32.7005 99.313 33.1413C99.313 33.7379 99.1606 34.2633 98.8556 34.7173C98.5507 35.1681 98.1099 35.5211 97.5332 35.7763C96.9598 36.0282 96.2654 36.1541 95.4501 36.1541C94.658 36.1541 93.9702 36.0315 93.3869 35.7862C92.8069 35.541 92.3528 35.183 92.0247 34.7124C91.6999 34.2417 91.5242 33.6683 91.4977 32.9922H93.3123C93.3388 33.3468 93.4482 33.6418 93.6404 33.8771C93.8327 34.1125 94.0829 34.2881 94.3912 34.4041C94.7027 34.5201 95.0507 34.5781 95.4352 34.5781C95.8362 34.5781 96.1876 34.5185 96.4892 34.3991C96.7941 34.2765 97.0327 34.1075 97.2051 33.892C97.3774 33.6733 97.4653 33.4181 97.4686 33.1264C97.4653 32.8613 97.3874 32.6425 97.2349 32.4702C97.0824 32.2945 96.8687 32.1487 96.5936 32.0327C96.3218 31.9134 96.0036 31.8073 95.639 31.7145L94.4806 31.4162C93.6421 31.2008 92.9792 30.8743 92.492 30.4368C92.0081 29.996 91.7662 29.411 91.7662 28.6818C91.7662 28.0819 91.9286 27.5566 92.2534 27.1058C92.5815 26.6551 93.0273 26.3054 93.5907 26.0568C94.1542 25.8049 94.7922 25.679 95.5048 25.679C96.2273 25.679 96.8604 25.8049 97.4039 26.0568C97.9508 26.3054 98.38 26.6518 98.6916 27.0959C99.0031 27.5367 99.1639 28.0438 99.1738 28.6172H97.399ZM104.761 28.3636V29.7557H100.371V28.3636H104.761ZM101.455 26.5341H103.255V33.7031C103.255 33.9451 103.291 34.1307 103.364 34.2599C103.44 34.3859 103.54 34.4721 103.662 34.5185C103.785 34.5649 103.921 34.5881 104.07 34.5881C104.183 34.5881 104.285 34.5798 104.378 34.5632C104.474 34.5466 104.547 34.5317 104.597 34.5185L104.9 35.9254C104.804 35.9586 104.667 35.995 104.488 36.0348C104.312 36.0746 104.097 36.0978 103.841 36.1044C103.391 36.1177 102.985 36.0497 102.623 35.9006C102.262 35.7481 101.975 35.5128 101.763 35.1946C101.554 34.8764 101.452 34.4787 101.455 34.0014V26.5341ZM109.585 36.1491C108.839 36.1491 108.193 35.9851 107.646 35.657C107.099 35.3288 106.675 34.8698 106.373 34.2798C106.075 33.6899 105.926 33.0005 105.926 32.2116C105.926 31.4228 106.075 30.7318 106.373 30.1385C106.675 29.5452 107.099 29.0845 107.646 28.7564C108.193 28.4283 108.839 28.2642 109.585 28.2642C110.331 28.2642 110.977 28.4283 111.524 28.7564C112.071 29.0845 112.494 29.5452 112.792 30.1385C113.093 30.7318 113.244 31.4228 113.244 32.2116C113.244 33.0005 113.093 33.6899 112.792 34.2798C112.494 34.8698 112.071 35.3288 111.524 35.657C110.977 35.9851 110.331 36.1491 109.585 36.1491ZM109.595 34.7074C109.999 34.7074 110.338 34.5964 110.609 34.3743C110.881 34.1489 111.083 33.8473 111.216 33.4695C111.352 33.0916 111.42 32.6707 111.42 32.2067C111.42 31.7393 111.352 31.3168 111.216 30.9389C111.083 30.5578 110.881 30.2545 110.609 30.0291C110.338 29.8037 109.999 29.6911 109.595 29.6911C109.181 29.6911 108.836 29.8037 108.561 30.0291C108.289 30.2545 108.085 30.5578 107.949 30.9389C107.817 31.3168 107.751 31.7393 107.751 32.2067C107.751 32.6707 107.817 33.0916 107.949 33.4695C108.085 33.8473 108.289 34.1489 108.561 34.3743C108.836 34.5964 109.181 34.7074 109.595 34.7074ZM114.842 36V28.3636H116.587V29.6364H116.666C116.806 29.1955 117.044 28.8558 117.382 28.6172C117.724 28.3752 118.113 28.2543 118.551 28.2543C118.65 28.2543 118.761 28.2592 118.884 28.2692C119.01 28.2758 119.114 28.2874 119.197 28.304V29.9595C119.121 29.933 119 29.9098 118.834 29.8899C118.672 29.8667 118.514 29.8551 118.362 29.8551C118.034 29.8551 117.739 29.9264 117.477 30.0689C117.218 30.2081 117.014 30.402 116.865 30.6506C116.716 30.8991 116.641 31.1858 116.641 31.5107V36H114.842ZM123.529 36.1491C122.763 36.1491 122.102 35.9901 121.545 35.6719C120.992 35.3504 120.566 34.8963 120.267 34.3097C119.969 33.7197 119.82 33.0253 119.82 32.2266C119.82 31.4411 119.969 30.7517 120.267 30.1584C120.569 29.5618 120.99 29.0978 121.53 28.7663C122.07 28.4316 122.705 28.2642 123.434 28.2642C123.905 28.2642 124.349 28.3404 124.767 28.4929C125.188 28.642 125.559 28.8741 125.88 29.1889C126.205 29.5038 126.46 29.9048 126.646 30.392C126.832 30.8759 126.924 31.4527 126.924 32.1222V32.674H120.665V31.4609H125.199C125.196 31.1162 125.121 30.8097 124.975 30.5412C124.83 30.2694 124.626 30.0556 124.364 29.8999C124.105 29.7441 123.804 29.6662 123.459 29.6662C123.091 29.6662 122.768 29.7557 122.49 29.9347C122.211 30.1103 121.994 30.3423 121.838 30.6307C121.686 30.9157 121.608 31.2289 121.605 31.5703V32.6293C121.605 33.0734 121.686 33.4545 121.848 33.7727C122.011 34.0876 122.238 34.3295 122.529 34.4986C122.821 34.6643 123.163 34.7472 123.554 34.7472C123.815 34.7472 124.052 34.7107 124.265 34.6378C124.477 34.5616 124.661 34.4505 124.816 34.3047C124.972 34.1589 125.09 33.9782 125.169 33.7628L126.85 33.9517C126.744 34.3958 126.542 34.7836 126.243 35.1151C125.948 35.4432 125.57 35.6984 125.11 35.8807C124.649 36.0597 124.122 36.1491 123.529 36.1491Z" fill="white"/>
<defs>
<clipPath id="clip0_8_351">
<rect width="33" height="33" fill="white" transform="translate(19 8)"/>
</clipPath>
</defs>
</svg>
