<svg width="32" height="32" viewBox="0 0 32 32" fill="none" xmlns="http://www.w3.org/2000/svg">
<path fill-rule="evenodd" clip-rule="evenodd" d="M5.0752 8.27526C6.27538 7.07544 7.90295 6.40142 9.6 6.40142C11.2971 6.40142 12.9246 7.07544 14.1248 8.27526L16 10.1489L17.8752 8.27526C18.4656 7.66399 19.1718 7.17642 19.9526 6.84101C20.7334 6.50559 21.5732 6.32904 22.423 6.32165C23.2728 6.31427 24.1156 6.4762 24.9021 6.798C25.6886 7.11979 26.4032 7.59501 27.0041 8.19593C27.605 8.79684 28.0803 9.51141 28.4021 10.2979C28.7239 11.0845 28.8858 11.9272 28.8784 12.777C28.871 13.6268 28.6945 14.4666 28.3591 15.2474C28.0236 16.0283 27.5361 16.7345 26.9248 17.3249L16 28.2513L5.0752 17.3249C3.87539 16.1247 3.20137 14.4971 3.20137 12.8001C3.20137 11.103 3.87539 9.47543 5.0752 8.27526V8.27526Z" fill="#F5F6F8"/>
</svg>
