<svg width="298" height="187" viewBox="0 0 298 187" fill="none" xmlns="http://www.w3.org/2000/svg">
<path d="M152.427 118.858C152.427 120.369 153.649 121.583 155.169 121.583H160.354C161.874 121.583 163.096 120.339 163.096 118.858V113.703C163.096 112.192 161.844 110.977 160.354 110.977H155.169C153.649 110.977 152.427 112.222 152.427 113.703V118.858V118.858Z" fill="white"/>
<path d="M142.981 121.613C144.5 121.613 145.722 120.368 145.722 118.887V113.732C145.722 112.221 144.471 111.007 142.981 111.007H137.795C136.276 111.007 135.054 112.251 135.054 113.732V118.887C135.054 120.398 136.276 121.613 137.795 121.613H142.981Z" fill="white"/>
<path d="M155.199 128.279C153.679 128.279 152.457 129.523 152.457 131.004V136.159C152.457 137.67 153.679 138.884 155.199 138.884H160.384C161.904 138.884 163.125 137.64 163.125 136.159V131.004C163.125 129.493 161.874 128.279 160.384 128.279H155.199Z" fill="white"/>
<path d="M145.722 131.004C145.722 129.493 144.471 128.279 142.981 128.279H137.795C136.276 128.279 135.054 129.523 135.054 131.004V136.159C135.054 137.67 136.276 138.884 137.795 138.884H142.981C144.5 138.884 145.722 137.64 145.722 136.159V131.004Z" fill="white"/>
<path d="M222.874 95.9571L152.844 33.5065C150.758 31.6401 147.391 31.6401 145.305 33.5065L124.266 52.2595V45.9492C124.266 43.8754 122.567 42.1572 120.452 42.1572H113.478C111.392 42.1572 109.664 43.8458 109.664 45.9492V65.2651L75.2748 95.9571C73.1888 97.8235 73.7848 99.3344 76.5562 99.3344H83.1718C85.973 99.3344 88.2378 101.616 88.2378 104.371V168.214C88.2378 170.999 90.5026 173.25 93.3038 173.25H103.883V121.376C103.883 96.5793 124.117 76.4635 149.06 76.4635C174.032 76.4635 194.236 96.5793 194.236 121.376C194.236 146.172 174.002 166.258 149.06 166.288C139.762 166.318 131.269 162.674 131.269 162.674L114.67 173.28H204.815C207.617 173.28 209.881 171.028 209.881 168.243V104.371C209.881 101.586 212.176 99.3344 214.947 99.3344H221.563C224.364 99.3344 224.96 97.8235 222.874 95.9571Z" fill="white"/>
</svg>
