<svg width="168" height="46" viewBox="0 0 168 46" fill="none" xmlns="http://www.w3.org/2000/svg">
<path d="M23.2756 25.1924C23.2756 25.5819 23.5887 25.895 23.9782 25.895H25.3069C25.6964 25.895 26.0095 25.5742 26.0095 25.1924V23.8637C26.0095 23.4742 25.6887 23.1611 25.3069 23.1611H23.9782C23.5887 23.1611 23.2756 23.4819 23.2756 23.8637V25.1924Z" fill="white"/>
<path d="M20.8549 25.895C21.2443 25.895 21.5574 25.5742 21.5574 25.1924V23.8637C21.5574 23.4742 21.2367 23.1611 20.8549 23.1611H19.5262C19.1367 23.1611 18.8236 23.4819 18.8236 23.8637V25.1924C18.8236 25.5819 19.1367 25.895 19.5262 25.895H20.8549Z" fill="white"/>
<path d="M23.9782 27.6207C23.5887 27.6207 23.2756 27.9415 23.2756 28.3233V29.652C23.2756 30.0415 23.5887 30.3545 23.9782 30.3545H25.3069C25.6964 30.3545 26.0095 30.0338 26.0095 29.652V28.3233C26.0095 27.9338 25.6887 27.6207 25.3069 27.6207H23.9782Z" fill="white"/>
<path d="M21.5574 28.3233C21.5574 27.9338 21.2367 27.6207 20.8549 27.6207H19.5262C19.1367 27.6207 18.8236 27.9415 18.8236 28.3233V29.652C18.8236 30.0415 19.1367 30.3545 19.5262 30.3545H20.8549C21.2443 30.3545 21.5574 30.0338 21.5574 29.652V28.3233Z" fill="white"/>
<path d="M41.328 19.2895L23.3825 3.19199C22.848 2.7109 21.9851 2.7109 21.4505 3.19199L16.0593 8.03345V6.39927C16.0593 5.86472 15.624 5.42181 15.0818 5.42181H13.2949C12.7604 5.42181 12.3175 5.85709 12.3175 6.39927V11.3782L3.50509 19.2895C2.97054 19.7705 3.12327 20.16 3.83345 20.16H5.52872C6.24654 20.16 6.82691 20.748 6.82691 21.4582V37.9145C6.82691 38.6324 7.40727 39.2127 8.12509 39.2127H10.836V25.8338C10.836 19.4422 16.0211 14.2571 22.4127 14.2571C28.812 14.2571 33.9895 19.4422 33.9895 25.8338C33.9895 32.2254 28.8044 37.4029 22.4127 37.4105C20.0302 37.4182 17.8538 36.4789 17.8538 36.4789L13.6004 39.2127H36.7004C37.4182 39.2127 37.9985 38.6324 37.9985 37.9145V21.4582C37.9985 20.7404 38.5865 20.16 39.2967 20.16H40.992C41.7098 20.16 41.8549 19.7629 41.328 19.2895Z" fill="white"/>
<path d="M45.78 39.2128H41.6564V24.635H45.78V39.2128ZM51.6676 33.5314H45.4593V30.1179H51.6676V33.5314ZM51.3775 24.635H55.5011V39.2128H51.3775V24.635Z" fill="white"/>
<path d="M63.8935 39.4037C62.6564 39.4037 61.5644 39.1517 60.6022 38.6553C59.6476 38.1589 58.8916 37.464 58.3418 36.5858C57.792 35.7077 57.5171 34.6997 57.5171 33.5771C57.5171 32.4393 57.792 31.4313 58.3418 30.5455C58.8916 29.6673 59.64 28.9724 60.6022 28.476C61.5567 27.9797 62.6564 27.7277 63.8935 27.7277C65.1305 27.7277 66.2302 27.9797 67.1924 28.476C68.1545 28.9724 68.9105 29.6673 69.4604 30.5455C70.0102 31.4237 70.2851 32.4393 70.2851 33.5771C70.2851 34.6997 70.0102 35.7077 69.4604 36.5858C68.9105 37.464 68.1545 38.1589 67.1924 38.6553C66.2302 39.1517 65.1305 39.4037 63.8935 39.4037ZM63.8935 36.2575C64.3364 36.2575 64.7335 36.1506 65.0924 35.9444C65.4436 35.7382 65.7338 35.4251 65.9476 35.0204C66.1615 34.608 66.2684 34.1193 66.2684 33.5542C66.2684 32.9738 66.1615 32.4851 65.9476 32.0957C65.7338 31.7062 65.4513 31.4084 65.0924 31.2022C64.7411 30.996 64.3364 30.8891 63.8935 30.8891C63.4505 30.8891 63.0535 30.996 62.6945 31.2022C62.3433 31.4084 62.0531 31.7062 61.8393 32.0957C61.6255 32.4851 61.5185 32.9738 61.5185 33.5542C61.5185 34.1269 61.6255 34.6157 61.8393 35.0204C62.0531 35.4328 62.3356 35.7382 62.6945 35.9444C63.0535 36.1506 63.4505 36.2575 63.8935 36.2575Z" fill="white"/>
<path d="M86.8025 27.7201C87.6807 27.7201 88.4596 27.9034 89.1469 28.2623C89.8342 28.6212 90.3764 29.171 90.7734 29.9041C91.1705 30.6372 91.3691 31.5917 91.3691 32.7601V39.2128H87.4134V33.4015C87.4134 32.5997 87.2607 32.0117 86.9553 31.6452C86.6498 31.2786 86.2298 31.0954 85.7029 31.0954C85.3135 31.0954 84.9698 31.187 84.672 31.3626C84.3742 31.5459 84.1374 31.8208 83.9771 32.1874C83.8091 32.5539 83.7251 33.035 83.7251 33.6383V39.2205H79.7694V33.4092C79.7694 32.6074 79.6167 32.0194 79.3189 31.6528C79.0211 31.2863 78.6011 31.103 78.0589 31.103C77.6847 31.103 77.3411 31.1946 77.0356 31.3703C76.7302 31.5535 76.4935 31.8285 76.3178 32.195C76.1422 32.5615 76.0582 33.0426 76.0582 33.6459V39.2281H72.1025V27.9034H75.8902V31.0725L75.1418 30.179C75.5465 29.3772 76.104 28.7663 76.8294 28.3463C77.5549 27.9263 78.3567 27.7201 79.2425 27.7201C80.2734 27.7201 81.1669 27.9797 81.9305 28.499C82.6942 29.0183 83.2058 29.8354 83.4731 30.9426L82.1825 30.6525C82.5873 29.7514 83.1905 29.0335 84.0076 28.5066C84.8171 27.9797 85.7487 27.7201 86.8025 27.7201Z" fill="white"/>
<path d="M99.7997 39.4037C98.4557 39.4037 97.2796 39.1517 96.2869 38.6401C95.2942 38.1361 94.5229 37.4412 93.9731 36.5554C93.4233 35.6772 93.1484 34.6768 93.1484 33.5695C93.1484 32.4317 93.4156 31.4237 93.9502 30.5379C94.4847 29.6597 95.2178 28.9648 96.1571 28.4685C97.0964 27.9721 98.1578 27.7201 99.3567 27.7201C100.464 27.7201 101.48 27.9492 102.388 28.415C103.297 28.8808 104.03 29.5452 104.572 30.4157C105.122 31.2863 105.397 32.3401 105.397 33.5925C105.397 33.7299 105.389 33.8903 105.374 34.0735C105.359 34.2568 105.344 34.4172 105.336 34.5699H96.4015V32.4852H103.236L101.739 33.0655C101.755 32.5692 101.663 32.1263 101.457 31.7445C101.258 31.3626 100.983 31.0648 100.632 30.8586C100.288 30.6525 99.876 30.5455 99.4026 30.5455C98.9138 30.5455 98.4938 30.6525 98.1349 30.8586C97.776 31.0648 97.5011 31.3626 97.3102 31.7445C97.1193 32.1263 97.0276 32.5768 97.0276 33.0885V33.6917C97.0276 34.2492 97.1422 34.7226 97.3713 35.1274C97.6004 35.5321 97.9287 35.8375 98.364 36.0514C98.7916 36.2652 99.3109 36.3721 99.9066 36.3721C100.479 36.3721 100.953 36.2957 101.342 36.1354C101.732 35.975 102.121 35.7306 102.511 35.3946L104.572 37.5786C104.045 38.159 103.389 38.6095 102.595 38.9226C101.8 39.2357 100.869 39.4037 99.7997 39.4037Z" fill="white"/>
<path d="M107.237 43.2524V27.9033H111.025V29.8429L110.987 33.5924L111.193 37.3189V43.2524H107.237ZM114.339 39.4037C113.385 39.4037 112.56 39.1898 111.88 38.7698C111.201 38.3498 110.681 37.7008 110.33 36.8455C109.979 35.9826 109.796 34.8982 109.796 33.6C109.796 32.2408 109.964 31.1335 110.292 30.2782C110.628 29.4229 111.132 28.7891 111.804 28.3615C112.476 27.9415 113.324 27.7277 114.332 27.7277C115.363 27.7277 116.294 27.972 117.134 28.4531C117.974 28.9418 118.639 29.6138 119.135 30.4844C119.631 31.3549 119.876 32.3935 119.876 33.6C119.876 34.7837 119.631 35.8069 119.135 36.6851C118.639 37.5633 117.974 38.2353 117.134 38.7088C116.294 39.1669 115.363 39.4037 114.339 39.4037ZM113.507 36.2575C113.95 36.2575 114.347 36.1506 114.706 35.9444C115.065 35.7382 115.347 35.4328 115.561 35.028C115.775 34.6233 115.882 34.1498 115.882 33.5924C115.882 32.9968 115.775 32.5004 115.561 32.1033C115.347 31.7062 115.065 31.4084 114.706 31.1946C114.347 30.9808 113.95 30.8815 113.507 30.8815C113.064 30.8815 112.667 30.9884 112.308 31.1946C111.957 31.4008 111.667 31.7062 111.453 32.1033C111.239 32.5004 111.132 32.9968 111.132 33.5924C111.132 34.1498 111.239 34.6233 111.453 35.028C111.667 35.4328 111.949 35.7382 112.308 35.9444C112.659 36.1506 113.056 36.2575 113.507 36.2575Z" fill="white"/>
<path d="M127.375 39.4037C126.137 39.4037 125.045 39.1517 124.083 38.6553C123.129 38.1589 122.373 37.464 121.823 36.5858C121.273 35.7077 120.998 34.6997 120.998 33.5771C120.998 32.4393 121.273 31.4313 121.823 30.5455C122.373 29.6673 123.121 28.9724 124.083 28.476C125.038 27.9797 126.137 27.7277 127.375 27.7277C128.612 27.7277 129.711 27.9797 130.673 28.476C131.636 28.9724 132.392 29.6673 132.941 30.5455C133.491 31.4237 133.766 32.4393 133.766 33.5771C133.766 34.6997 133.491 35.7077 132.941 36.5858C132.392 37.464 131.636 38.1589 130.673 38.6553C129.711 39.1517 128.612 39.4037 127.375 39.4037ZM127.375 36.2575C127.817 36.2575 128.215 36.1506 128.573 35.9444C128.932 35.7382 129.215 35.4251 129.429 35.0204C129.643 34.608 129.749 34.1193 129.749 33.5542C129.749 32.9738 129.643 32.4851 129.429 32.0957C129.215 31.7062 128.932 31.4084 128.573 31.2022C128.215 30.996 127.817 30.8891 127.375 30.8891C126.932 30.8891 126.535 30.996 126.176 31.2022C125.824 31.4084 125.534 31.7062 125.32 32.0957C125.107 32.4851 125 32.9738 125 33.5542C125 34.1269 125.107 34.6157 125.32 35.0204C125.534 35.4328 125.817 35.7382 126.176 35.9444C126.527 36.1506 126.932 36.2575 127.375 36.2575Z" fill="white"/>
<path d="M137.554 26.6739C136.821 26.6739 136.233 26.4753 135.797 26.0706C135.362 25.6659 135.141 25.1695 135.141 24.5739C135.141 23.9782 135.362 23.4819 135.797 23.0848C136.233 22.6877 136.821 22.4891 137.554 22.4891C138.279 22.4891 138.86 22.68 139.303 23.0542C139.745 23.4284 139.967 23.9095 139.967 24.4899C139.967 25.116 139.745 25.6353 139.31 26.0553C138.883 26.4677 138.295 26.6739 137.554 26.6739ZM135.576 39.2128V27.9033H139.532V39.2128H135.576Z" fill="white"/>
<path d="M149.451 27.7201C150.329 27.7201 151.116 27.9034 151.826 28.2623C152.536 28.6212 153.094 29.171 153.506 29.9041C153.919 30.6372 154.117 31.5917 154.117 32.7601V39.2128H150.139V33.4015C150.139 32.5997 149.978 32.0117 149.65 31.6452C149.321 31.2786 148.886 31.0954 148.329 31.0954C147.901 31.0954 147.512 31.187 147.16 31.3779C146.817 31.5688 146.542 31.8514 146.351 32.2408C146.16 32.6303 146.061 33.1419 146.061 33.7834V39.2205H142.105V27.9034H145.893V31.1335L145.144 30.1943C145.572 29.3925 146.168 28.7739 146.916 28.3539C147.657 27.9263 148.504 27.7201 149.451 27.7201Z" fill="white"/>
<path d="M155.408 31.3015V28.3462H163.594V31.3015H155.408ZM161.631 39.4037C160.188 39.4037 159.065 39.0448 158.256 38.3346C157.454 37.6168 157.049 36.54 157.049 35.0968V25.3833H161.005V35.028C161.005 35.4557 161.112 35.784 161.326 36.0055C161.54 36.2269 161.83 36.3415 162.189 36.3415C162.647 36.3415 163.052 36.2269 163.395 35.9902L164.396 38.7393C164.037 38.976 163.617 39.144 163.136 39.2509C162.655 39.3578 162.158 39.4037 161.631 39.4037Z" fill="white"/>
</svg>
