<svg width="248" height="248" viewBox="0 0 248 248" fill="none" xmlns="http://www.w3.org/2000/svg">
<path d="M126.852 99.4976C126.852 100.762 127.869 101.779 129.134 101.779H133.449C134.714 101.779 135.73 100.738 135.73 99.4976V95.1824C135.73 93.9176 134.689 92.9008 133.449 92.9008H129.134C127.869 92.9008 126.852 93.9424 126.852 95.1824V99.4976Z" fill="#2F6295"/>
<path d="M118.99 101.804C120.255 101.804 121.272 100.762 121.272 99.5224V95.2072C121.272 93.9424 120.23 92.9256 118.99 92.9256H114.675C113.41 92.9256 112.394 93.9672 112.394 95.2072V99.5224C112.394 100.787 113.41 101.804 114.675 101.804H118.99Z" fill="#2F6295"/>
<path d="M129.158 107.384C127.894 107.384 126.877 108.426 126.877 109.666V113.981C126.877 115.246 127.894 116.262 129.158 116.262H133.474C134.738 116.262 135.755 115.221 135.755 113.981V109.666C135.755 108.401 134.714 107.384 133.474 107.384H129.158Z" fill="#2F6295"/>
<path d="M121.272 109.666C121.272 108.401 120.23 107.384 118.99 107.384H114.675C113.41 107.384 112.394 108.426 112.394 109.666V113.981C112.394 115.246 113.41 116.262 114.675 116.262H118.99C120.255 116.262 121.272 115.221 121.272 113.981V109.666Z" fill="#2F6295"/>
<path d="M185.479 80.3272L127.199 28.0488C125.463 26.4864 122.661 26.4864 120.925 28.0488L103.416 43.7472V38.4648C103.416 36.7288 102.002 35.2904 100.242 35.2904H94.4383C92.7023 35.2904 91.2639 36.704 91.2639 38.4648V54.6344L62.6447 80.3272C60.9087 81.8896 61.4047 83.1544 63.7111 83.1544H69.2167C71.5479 83.1544 73.4327 85.064 73.4327 87.3704V140.814C73.4327 143.146 75.3175 145.03 77.6487 145.03H86.4527V101.606C86.4527 80.848 103.292 64.0088 124.05 64.0088C144.832 64.0088 161.646 80.848 161.646 101.606C161.646 122.363 144.807 139.178 124.05 139.202C116.312 139.227 109.244 136.177 109.244 136.177L95.4303 145.055H170.45C172.782 145.055 174.666 143.17 174.666 140.839V87.3704C174.666 85.0392 176.576 83.1544 178.882 83.1544H184.388C186.719 83.1544 187.215 81.8896 185.479 80.3272Z" fill="#2F6295"/>
<path d="M34.9432 189.968H28.4704V167.053H34.9432V189.968ZM44.2184 181.015H34.472V175.658H44.2184V181.015ZM43.7472 167.053H50.22V189.968H43.7472V167.053Z" fill="#2F6295"/>
<path d="M63.4136 190.266C61.4792 190.266 59.7432 189.869 58.2304 189.075C56.7176 188.282 55.552 187.215 54.684 185.826C53.816 184.438 53.3944 182.875 53.3944 181.09C53.3944 179.304 53.816 177.717 54.684 176.328C55.552 174.939 56.7424 173.848 58.2304 173.079C59.7432 172.286 61.4544 171.889 63.4136 171.889C65.348 171.889 67.084 172.286 68.5968 173.079C70.1096 173.873 71.3 174.939 72.168 176.328C73.036 177.717 73.4576 179.304 73.4576 181.09C73.4576 182.85 73.036 184.438 72.168 185.826C71.3 187.215 70.1096 188.306 68.5968 189.075C67.084 189.869 65.3728 190.266 63.4136 190.266ZM63.4136 185.306C64.108 185.306 64.728 185.132 65.2984 184.81C65.844 184.487 66.2904 183.991 66.6376 183.346C66.9848 182.702 67.1336 181.933 67.1336 181.04C67.1336 180.122 66.96 179.354 66.6376 178.758C66.2904 178.138 65.844 177.667 65.2984 177.345C64.7528 177.022 64.108 176.849 63.4136 176.849C62.7192 176.849 62.0992 177.022 61.5288 177.345C60.9832 177.667 60.5368 178.138 60.1896 178.758C59.8424 179.378 59.6936 180.122 59.6936 181.04C59.6936 181.933 59.8672 182.702 60.1896 183.346C60.5368 183.991 60.9832 184.487 61.5288 184.81C62.0992 185.157 62.7192 185.306 63.4136 185.306Z" fill="#2F6295"/>
<path d="M99.4233 171.889C100.787 171.889 102.027 172.162 103.118 172.732C104.21 173.302 105.053 174.17 105.673 175.311C106.293 176.477 106.615 177.965 106.615 179.8V189.968H100.39V180.842C100.39 179.577 100.142 178.659 99.6713 178.064C99.2001 177.494 98.5305 177.196 97.7121 177.196C97.0921 177.196 96.5713 177.345 96.1001 177.618C95.6289 177.89 95.2569 178.337 95.0089 178.907C94.7361 179.478 94.6121 180.246 94.6121 181.189V189.968H88.3873V180.842C88.3873 179.577 88.1641 178.659 87.6929 178.064C87.2217 177.494 86.5521 177.196 85.7089 177.196C85.1137 177.196 84.5929 177.345 84.0969 177.618C83.6257 177.89 83.2289 178.337 82.9561 178.907C82.6833 179.478 82.5345 180.246 82.5345 181.189V189.968H76.3097V172.186H82.2617V177.171L81.0713 175.758C81.7161 174.493 82.5841 173.526 83.7249 172.881C84.8657 172.236 86.1305 171.889 87.5193 171.889C89.1313 171.889 90.5449 172.286 91.7353 173.104C92.9257 173.922 93.7441 175.212 94.1657 176.948L92.1321 176.502C92.7769 175.088 93.7193 173.947 95.0089 173.129C96.2985 172.31 97.7617 171.889 99.4233 171.889Z" fill="#2F6295"/>
<path d="M119.858 190.266C117.75 190.266 115.89 189.869 114.353 189.075C112.79 188.282 111.575 187.19 110.707 185.802C109.839 184.413 109.418 182.85 109.418 181.114C109.418 179.329 109.839 177.742 110.682 176.353C111.526 174.964 112.691 173.873 114.154 173.104C115.618 172.335 117.304 171.914 119.189 171.914C120.925 171.914 122.512 172.286 123.95 173.005C125.389 173.724 126.53 174.79 127.398 176.154C128.266 177.518 128.687 179.18 128.687 181.139C128.687 181.362 128.687 181.61 128.662 181.883C128.638 182.156 128.613 182.429 128.588 182.677H114.551V179.403H125.29L122.934 180.321C122.958 179.527 122.81 178.833 122.487 178.238C122.165 177.642 121.743 177.171 121.198 176.849C120.652 176.526 120.007 176.353 119.263 176.353C118.494 176.353 117.825 176.526 117.254 176.849C116.684 177.171 116.262 177.642 115.965 178.238C115.667 178.833 115.518 179.552 115.518 180.346V181.288C115.518 182.156 115.692 182.925 116.064 183.545C116.436 184.19 116.932 184.661 117.626 185.008C118.296 185.355 119.114 185.504 120.057 185.504C120.95 185.504 121.694 185.38 122.314 185.132C122.934 184.884 123.529 184.487 124.149 183.966L127.398 187.414C126.579 188.331 125.538 189.026 124.298 189.522C123.008 190.018 121.545 190.266 119.858 190.266Z" fill="#2F6295"/>
<path d="M131.539 196.317V172.186H137.491V175.237L137.417 181.139L137.739 186.992V196.317H131.539ZM142.699 190.266C141.186 190.266 139.897 189.943 138.83 189.274C137.764 188.604 136.946 187.587 136.4 186.248C135.854 184.884 135.557 183.198 135.557 181.139C135.557 179.006 135.83 177.27 136.35 175.906C136.871 174.567 137.665 173.55 138.731 172.906C139.798 172.236 141.112 171.914 142.699 171.914C144.311 171.914 145.774 172.286 147.114 173.054C148.428 173.823 149.47 174.89 150.263 176.254C151.032 177.618 151.429 179.254 151.429 181.139C151.429 182.999 151.032 184.611 150.263 185.975C149.494 187.339 148.453 188.406 147.114 189.15C145.799 189.894 144.311 190.266 142.699 190.266ZM141.41 185.306C142.104 185.306 142.724 185.132 143.294 184.81C143.84 184.487 144.286 183.991 144.634 183.371C144.981 182.726 145.13 181.982 145.13 181.114C145.13 180.172 144.956 179.403 144.634 178.783C144.286 178.163 143.84 177.692 143.294 177.37C142.749 177.047 142.104 176.874 141.41 176.874C140.715 176.874 140.095 177.047 139.525 177.37C138.979 177.692 138.533 178.163 138.186 178.783C137.838 179.403 137.69 180.197 137.69 181.114C137.69 181.982 137.863 182.751 138.186 183.371C138.533 184.016 138.979 184.487 139.525 184.81C140.07 185.157 140.69 185.306 141.41 185.306Z" fill="#2F6295"/>
<path d="M163.209 190.266C161.274 190.266 159.538 189.869 158.026 189.075C156.513 188.282 155.347 187.215 154.479 185.826C153.611 184.438 153.19 182.875 153.19 181.09C153.19 179.304 153.611 177.717 154.479 176.328C155.347 174.939 156.538 173.848 158.026 173.079C159.538 172.286 161.25 171.889 163.209 171.889C165.143 171.889 166.879 172.286 168.392 173.079C169.905 173.873 171.095 174.939 171.963 176.328C172.831 177.717 173.253 179.304 173.253 181.09C173.253 182.85 172.831 184.438 171.963 185.826C171.095 187.215 169.905 188.306 168.392 189.075C166.879 189.869 165.143 190.266 163.209 190.266ZM163.209 185.306C163.903 185.306 164.523 185.132 165.094 184.81C165.639 184.487 166.086 183.991 166.433 183.346C166.78 182.702 166.929 181.933 166.929 181.04C166.929 180.122 166.755 179.354 166.433 178.758C166.086 178.138 165.639 177.667 165.094 177.345C164.548 177.022 163.903 176.849 163.209 176.849C162.514 176.849 161.894 177.022 161.324 177.345C160.778 177.667 160.332 178.138 159.985 178.758C159.638 179.378 159.489 180.122 159.489 181.04C159.489 181.933 159.662 182.702 159.985 183.346C160.332 183.991 160.778 184.487 161.324 184.81C161.87 185.157 162.514 185.306 163.209 185.306Z" fill="#2F6295"/>
<path d="M179.205 170.252C178.039 170.252 177.122 169.93 176.427 169.31C175.733 168.665 175.386 167.896 175.386 166.954C175.386 166.011 175.733 165.242 176.427 164.622C177.122 164.002 178.039 163.68 179.205 163.68C180.346 163.68 181.263 163.978 181.958 164.573C182.652 165.168 182.999 165.912 182.999 166.83C182.999 167.822 182.652 168.64 181.958 169.285C181.288 169.93 180.37 170.252 179.205 170.252ZM176.105 189.968V172.186H182.33V189.968H176.105Z" fill="#2F6295"/>
<path d="M197.904 171.889C199.268 171.889 200.533 172.162 201.624 172.732C202.74 173.302 203.608 174.17 204.253 175.311C204.897 176.477 205.22 177.965 205.22 179.8V189.968H198.97V180.842C198.97 179.577 198.722 178.659 198.201 178.064C197.681 177.494 196.986 177.196 196.118 177.196C195.449 177.196 194.829 177.345 194.283 177.642C193.738 177.94 193.316 178.386 193.018 179.006C192.721 179.626 192.572 180.42 192.572 181.437V189.968H186.347V172.186H192.299V177.27L191.109 175.807C191.778 174.542 192.721 173.575 193.886 172.906C195.077 172.236 196.416 171.889 197.904 171.889Z" fill="#2F6295"/>
<path d="M207.254 177.518V172.881H220.125V177.518H207.254ZM217.05 190.266C214.768 190.266 213.007 189.695 211.742 188.579C210.478 187.463 209.833 185.752 209.833 183.495V168.243H216.058V183.396C216.058 184.066 216.231 184.586 216.554 184.934C216.901 185.281 217.347 185.454 217.918 185.454C218.637 185.454 219.282 185.281 219.827 184.909L221.39 189.224C220.819 189.596 220.15 189.869 219.406 190.018C218.662 190.166 217.868 190.266 217.05 190.266Z" fill="#2F6295"/>
<path d="M52.9494 213.377C52.8699 213.077 52.7923 212.701 52.7166 212.247C52.6503 211.793 52.5881 211.271 52.5301 210.681C52.4838 210.082 52.4475 209.429 52.4211 208.721C52.5536 208.612 52.7048 208.521 52.8746 208.449C53.0537 208.376 53.2373 208.34 53.4252 208.34C53.6601 208.34 53.8381 208.394 53.9593 208.503C54.0923 208.603 54.1658 208.784 54.1798 209.048C54.225 209.756 54.2809 210.459 54.3473 211.158C54.4256 211.848 54.5096 212.551 54.5994 213.268H54.6558C54.9388 212.878 55.2414 212.415 55.5634 211.879C55.8972 211.335 56.2218 210.772 56.5371 210.191C56.8643 209.601 57.1548 209.043 57.4086 208.517C57.5359 208.462 57.6596 208.421 57.7797 208.394C57.9115 208.358 58.048 208.34 58.1889 208.34C58.4238 208.34 58.6065 208.394 58.7371 208.503C58.8794 208.603 58.919 208.771 58.8558 209.007C58.7999 209.216 58.681 209.501 58.4991 209.864C58.3291 210.218 58.1141 210.618 57.854 211.062C57.6057 211.498 57.3244 211.952 57.0101 212.424C56.7075 212.887 56.3933 213.34 56.0675 213.785C55.7416 214.23 55.4267 214.634 55.1227 214.997C54.4247 215.814 53.8177 216.431 53.3018 216.848C52.7929 217.275 52.3552 217.488 51.9888 217.488C51.6975 217.488 51.4845 217.406 51.3498 217.243C51.215 217.08 51.1617 216.875 51.1898 216.63C51.4427 216.458 51.7147 216.249 52.0059 216.004C52.304 215.768 52.5988 215.51 52.8903 215.228C53.1793 214.956 53.4343 214.688 53.6551 214.425C53.5076 214.38 53.3721 214.289 53.2489 214.153C53.1375 214.008 53.0376 213.749 52.9494 213.377Z" fill="#2F6295"/>
<path d="M65.8855 211.689C65.7006 212.378 65.398 212.982 64.9775 213.499C64.5595 214.008 64.0544 214.402 63.4622 214.684C62.8819 214.956 62.2441 215.092 61.5488 215.092C60.8629 215.092 60.298 214.956 59.8542 214.684C59.4128 214.402 59.1193 214.008 58.9736 213.499C58.8279 212.991 58.8487 212.388 59.0359 211.689C59.2231 210.99 59.5258 210.386 59.9438 209.878C60.3713 209.37 60.8811 208.975 61.4732 208.694C62.0654 208.412 62.6997 208.272 63.3762 208.272C64.0621 208.272 64.6211 208.412 65.053 208.694C65.4944 208.975 65.788 209.37 65.9337 209.878C66.0888 210.386 66.0727 210.99 65.8855 211.689ZM63.0261 209.579C62.5093 209.579 62.046 209.765 61.6363 210.137C61.2359 210.509 60.9469 211.026 60.7694 211.689C60.5895 212.36 60.6012 212.878 60.8046 213.241C61.008 213.604 61.3728 213.785 61.899 213.785C62.4251 213.785 62.8872 213.604 63.2851 213.241C63.6855 212.869 63.9744 212.351 64.1519 211.689C64.3294 211.026 64.3177 210.509 64.1167 210.137C63.9158 209.765 63.5522 209.579 63.0261 209.579Z" fill="#2F6295"/>
<path d="M67.472 211.362H69.1632L68.8787 212.424C68.7498 212.905 68.7878 213.254 68.9925 213.472C69.1996 213.681 69.5381 213.785 70.0079 213.785C70.3086 213.785 70.5696 213.758 70.7909 213.703C71.0146 213.64 71.1913 213.576 71.3211 213.513L71.8974 211.362H73.6028L72.99 213.649C72.934 213.858 72.8503 214.03 72.7386 214.166C72.627 214.302 72.4567 214.43 72.2278 214.548C71.9233 214.702 71.5511 214.829 71.1109 214.929C70.6683 215.038 70.1792 215.092 69.6436 215.092C68.9953 215.092 68.4559 215.001 68.0254 214.82C67.5948 214.638 67.305 214.352 67.1558 213.962C67.0067 213.572 67.0148 213.068 67.1802 212.451L67.472 211.362ZM71.7223 212.015L72.6671 208.489C72.7471 208.471 72.8612 208.449 73.0094 208.421C73.1577 208.394 73.3117 208.381 73.4714 208.381C73.7908 208.381 74.0112 208.435 74.1323 208.544C74.2535 208.653 74.2739 208.857 74.1937 209.157L73.4277 212.015H71.7223ZM67.2969 212.015L68.2416 208.489C68.3123 208.471 68.4217 208.449 68.5699 208.421C68.7182 208.394 68.8768 208.381 69.046 208.381C69.3654 208.381 69.581 208.435 69.6928 208.544C69.8139 208.653 69.8344 208.857 69.7541 209.157L68.9882 212.015H67.2969Z" fill="#2F6295"/>
<path d="M76.9835 211.866H75.2923L75.8285 209.864C75.8893 209.638 75.992 209.447 76.1367 209.293C76.2908 209.138 76.4894 208.993 76.7326 208.857C77.0607 208.685 77.4542 208.548 77.9132 208.449C78.3745 208.34 78.8542 208.285 79.3522 208.285C80.226 208.285 80.5948 208.539 80.4587 209.048C80.4246 209.175 80.3742 209.293 80.3074 209.402C80.2431 209.501 80.1718 209.592 80.0936 209.674C80.0045 209.656 79.8919 209.638 79.7558 209.619C79.6197 209.601 79.4765 209.592 79.3262 209.592C78.9785 209.592 78.6447 209.628 78.3245 209.701C78.0044 209.774 77.7252 209.869 77.4869 209.987L76.9835 211.866ZM77.1075 211.403L76.1774 214.874C76.0949 214.901 75.9808 214.924 75.835 214.942C75.6962 214.97 75.5469 214.983 75.3872 214.983C75.0677 214.983 74.8474 214.929 74.7263 214.82C74.6051 214.711 74.5822 214.516 74.6576 214.234L75.4418 211.307L77.1075 211.403Z" fill="#2F6295"/>
<path d="M88.0512 212.152L88.3795 210.926C88.5059 210.454 88.4656 210.114 88.2584 209.905C88.0537 209.687 87.754 209.579 87.3594 209.579C87.0306 209.579 86.7129 209.642 86.4063 209.769C86.1022 209.887 85.8356 210.023 85.6063 210.178L85.8474 208.857C86.1 208.721 86.4124 208.589 86.7847 208.462C87.1664 208.335 87.5686 208.272 87.9914 208.272C88.8371 208.272 89.4564 208.485 89.8495 208.912C90.2426 209.338 90.3236 209.982 90.0926 210.845L89.7424 212.152H88.0512ZM85.5432 211.307L84.5875 214.874C84.505 214.901 84.3909 214.924 84.2451 214.942C84.1063 214.97 83.957 214.983 83.7973 214.983C83.4778 214.983 83.2575 214.929 83.1364 214.82C83.0152 214.711 82.9923 214.516 83.0677 214.234L83.8519 211.307H85.5432ZM89.9649 211.321L89.0129 214.874C88.9399 214.901 88.8304 214.924 88.6846 214.942C88.5364 214.97 88.3824 214.983 88.2227 214.983C87.8938 214.983 87.6688 214.929 87.5477 214.82C87.4359 214.711 87.4177 214.516 87.4931 214.234L88.2737 211.321H89.9649ZM83.6258 212.152L85.2599 206.053C85.3305 206.035 85.4399 206.012 85.5882 205.985C85.7364 205.957 85.8951 205.944 86.0642 205.944C86.3837 205.944 86.5981 206.003 86.7074 206.121C86.8285 206.23 86.8514 206.425 86.776 206.706L85.317 212.152H83.6258Z" fill="#2F6295"/>
<path d="M98.2157 211.689C98.0309 212.378 97.7282 212.982 97.3077 213.499C96.8897 214.008 96.3846 214.402 95.7924 214.684C95.2121 214.956 94.5743 215.092 93.879 215.092C93.1931 215.092 92.6283 214.956 92.1844 214.684C91.743 214.402 91.4495 214.008 91.3038 213.499C91.1581 212.991 91.1789 212.388 91.3661 211.689C91.5534 210.99 91.856 210.386 92.2741 209.878C92.7015 209.37 93.2113 208.975 93.8035 208.694C94.3956 208.412 95.0299 208.272 95.7064 208.272C96.3923 208.272 96.9513 208.412 97.3833 208.694C97.8246 208.975 98.1182 209.37 98.2639 209.878C98.419 210.386 98.4029 210.99 98.2157 211.689ZM95.3563 209.579C94.8395 209.579 94.3762 209.765 93.9665 210.137C93.5661 210.509 93.2772 211.026 93.0996 211.689C92.9197 212.36 92.9314 212.878 93.1348 213.241C93.3382 213.604 93.703 213.785 94.2292 213.785C94.7553 213.785 95.2174 213.604 95.6153 213.241C96.0157 212.869 96.3046 212.351 96.4821 211.689C96.6597 211.026 96.6479 210.509 96.447 210.137C96.246 209.765 95.8824 209.579 95.3563 209.579Z" fill="#2F6295"/>
<path d="M105.406 212.015H103.7L104.069 210.64C104.166 210.277 104.125 210.01 103.946 209.837C103.776 209.665 103.517 209.579 103.169 209.579C102.934 209.579 102.699 209.615 102.464 209.687C102.237 209.76 102.042 209.842 101.876 209.933L101.318 212.015H99.6271L100.211 209.837C100.269 209.619 100.359 209.442 100.48 209.306C100.61 209.17 100.791 209.039 101.023 208.912C101.353 208.73 101.745 208.58 102.2 208.462C102.666 208.335 103.125 208.272 103.576 208.272C104.036 208.272 104.441 208.34 104.79 208.476C105.138 208.612 105.398 208.816 105.57 209.088C105.621 209.143 105.667 209.197 105.709 209.252C105.751 209.306 105.781 209.37 105.799 209.442C105.849 209.57 105.879 209.724 105.886 209.905C105.897 210.078 105.875 210.264 105.821 210.463L105.406 212.015ZM109.493 212.015H107.787L108.156 210.64C108.253 210.277 108.217 210.01 108.047 209.837C107.886 209.665 107.632 209.579 107.285 209.579C107.022 209.579 106.753 209.633 106.48 209.742C106.218 209.842 105.975 209.978 105.75 210.15L105.178 209.129C105.521 208.902 105.913 208.703 106.353 208.53C106.804 208.358 107.301 208.272 107.846 208.272C108.335 208.272 108.759 208.353 109.119 208.517C109.482 208.671 109.735 208.921 109.877 209.265C110.022 209.601 110.022 210.041 109.876 210.586L109.493 212.015ZM101.497 211.348L100.552 214.874C100.47 214.901 100.356 214.924 100.21 214.942C100.071 214.97 99.9219 214.983 99.7621 214.983C99.4427 214.983 99.2224 214.929 99.1012 214.82C98.9801 214.711 98.9572 214.516 99.0326 214.234L99.8059 211.348H101.497ZM105.584 211.348L104.64 214.874C104.557 214.901 104.443 214.924 104.297 214.942C104.149 214.97 103.995 214.983 103.835 214.983C103.516 214.983 103.295 214.929 103.174 214.82C103.053 214.711 103.03 214.516 103.106 214.234L103.879 211.348H105.584ZM109.671 211.348L108.727 214.874C108.644 214.901 108.53 214.924 108.384 214.942C108.236 214.97 108.082 214.983 107.922 214.983C107.603 214.983 107.383 214.929 107.261 214.82C107.14 214.711 107.117 214.516 107.193 214.234L107.966 211.348H109.671Z" fill="#2F6295"/>
<path d="M112.174 211.376L116.125 210.831C116.192 210.477 116.132 210.173 115.947 209.919C115.764 209.656 115.437 209.524 114.967 209.524C114.479 209.524 114.026 209.687 113.61 210.014C113.203 210.341 112.913 210.808 112.741 211.416L112.601 212.097C112.527 212.687 112.645 213.123 112.955 213.404C113.265 213.685 113.716 213.826 114.308 213.826C114.703 213.826 115.079 213.772 115.437 213.663C115.807 213.545 116.113 213.418 116.356 213.281C116.459 213.354 116.531 213.454 116.572 213.581C116.625 213.699 116.632 213.831 116.593 213.976C116.532 214.203 116.371 214.402 116.109 214.575C115.849 214.738 115.523 214.865 115.133 214.956C114.751 215.047 114.326 215.092 113.856 215.092C113.132 215.092 112.523 214.965 112.027 214.711C111.543 214.448 111.216 214.057 111.044 213.54C110.873 213.023 110.889 212.383 111.094 211.621C111.242 211.067 111.457 210.581 111.738 210.164C112.028 209.746 112.361 209.397 112.737 209.116C113.123 208.834 113.531 208.626 113.962 208.489C114.405 208.344 114.852 208.272 115.303 208.272C115.914 208.272 116.416 208.394 116.811 208.639C117.215 208.884 117.492 209.22 117.64 209.647C117.789 210.073 117.791 210.559 117.645 211.103C117.577 211.357 117.46 211.548 117.294 211.675C117.131 211.793 116.928 211.866 116.686 211.893L111.934 212.533L112.174 211.376Z" fill="#2F6295"/>
<path d="M126.49 213.091C126.322 213.717 125.946 214.212 125.36 214.575C124.786 214.929 124.038 215.106 123.118 215.106C122.366 215.106 121.78 214.997 121.359 214.779C120.938 214.561 120.775 214.275 120.87 213.921C120.911 213.767 120.986 213.626 121.096 213.499C121.205 213.372 121.331 213.268 121.475 213.186C121.695 213.35 121.96 213.499 122.271 213.635C122.585 213.762 122.962 213.826 123.404 213.826C124.212 213.826 124.681 213.585 124.809 213.104C124.865 212.896 124.839 212.732 124.729 212.614C124.622 212.487 124.427 212.392 124.143 212.329L123.367 212.124C122.729 211.979 122.287 211.752 122.041 211.444C121.804 211.135 121.754 210.727 121.89 210.218C122.041 209.656 122.404 209.193 122.981 208.83C123.56 208.458 124.281 208.272 125.146 208.272C125.597 208.272 125.984 208.317 126.307 208.408C126.643 208.489 126.887 208.612 127.04 208.775C127.206 208.93 127.258 209.12 127.197 209.347C127.156 209.501 127.082 209.638 126.975 209.756C126.878 209.874 126.768 209.969 126.645 210.041C126.552 209.969 126.416 209.896 126.238 209.824C126.063 209.742 125.859 209.678 125.627 209.633C125.406 209.579 125.174 209.551 124.93 209.551C124.563 209.551 124.256 209.61 124.009 209.728C123.763 209.837 123.612 210.001 123.553 210.218C123.512 210.373 123.536 210.509 123.627 210.627C123.72 210.736 123.904 210.822 124.178 210.885L124.863 211.062C125.581 211.226 126.063 211.475 126.312 211.811C126.572 212.138 126.631 212.564 126.49 213.091Z" fill="#2F6295"/>
<path d="M130.136 211.307L129.699 212.941C129.618 213.241 129.655 213.454 129.809 213.581C129.963 213.708 130.204 213.772 130.533 213.772C130.683 213.772 130.853 213.753 131.041 213.717C131.232 213.672 131.395 213.622 131.532 213.567C131.578 213.64 131.615 213.731 131.642 213.84C131.672 213.939 131.669 214.057 131.632 214.194C131.564 214.448 131.38 214.661 131.08 214.833C130.78 215.006 130.358 215.092 129.813 215.092C129.08 215.092 128.54 214.933 128.193 214.616C127.855 214.298 127.784 213.776 127.978 213.05L128.445 211.307H130.136ZM130.182 208.612H132.958C132.981 208.666 132.996 208.753 133.002 208.871C133.008 208.989 132.994 209.111 132.96 209.238C132.899 209.465 132.802 209.633 132.67 209.742C132.54 209.842 132.381 209.892 132.193 209.892H129.839L130.182 208.612ZM128.347 211.675L129.66 206.774C129.742 206.747 129.857 206.72 130.006 206.693C130.154 206.665 130.308 206.652 130.468 206.652C130.778 206.652 130.992 206.711 131.111 206.829C131.232 206.938 131.255 207.133 131.179 207.414L130.038 211.675H128.347Z" fill="#2F6295"/>
<path d="M133.77 211.362H135.462L135.177 212.424C135.048 212.905 135.086 213.254 135.291 213.472C135.498 213.681 135.836 213.785 136.306 213.785C136.607 213.785 136.868 213.758 137.089 213.703C137.313 213.64 137.49 213.576 137.619 213.513L138.196 211.362H139.901L139.288 213.649C139.232 213.858 139.149 214.03 139.037 214.166C138.925 214.302 138.755 214.43 138.526 214.548C138.222 214.702 137.849 214.829 137.409 214.929C136.967 215.038 136.477 215.092 135.942 215.092C135.294 215.092 134.754 215.001 134.324 214.82C133.893 214.638 133.603 214.352 133.454 213.962C133.305 213.572 133.313 213.068 133.478 212.451L133.77 211.362ZM138.021 212.015L138.965 208.489C139.045 208.471 139.159 208.449 139.308 208.421C139.456 208.394 139.61 208.381 139.77 208.381C140.089 208.381 140.309 208.435 140.431 208.544C140.552 208.653 140.572 208.857 140.492 209.157L139.726 212.015H138.021ZM133.595 212.015L134.54 208.489C134.611 208.471 134.72 208.449 134.868 208.421C135.016 208.394 135.175 208.381 135.344 208.381C135.664 208.381 135.879 208.435 135.991 208.544C136.112 208.653 136.133 208.857 136.052 209.157L135.286 212.015H133.595Z" fill="#2F6295"/>
<path d="M143.781 208.898H146.614C146.646 208.952 146.665 209.039 146.671 209.157C146.68 209.265 146.666 209.388 146.629 209.524C146.568 209.751 146.467 209.919 146.325 210.028C146.195 210.128 146.036 210.178 145.848 210.178H143.438L143.781 208.898ZM143.761 209.973H142.126L142.611 208.163C142.764 207.591 143.006 207.128 143.335 206.774C143.667 206.411 144.067 206.148 144.533 205.985C145.002 205.812 145.514 205.726 146.068 205.726C146.67 205.726 147.105 205.803 147.374 205.957C147.652 206.112 147.751 206.339 147.67 206.638C147.634 206.774 147.572 206.901 147.484 207.019C147.398 207.128 147.303 207.219 147.199 207.292C147.05 207.219 146.863 207.16 146.641 207.115C146.427 207.069 146.199 207.046 145.954 207.046C145.466 207.046 145.084 207.137 144.81 207.319C144.536 207.5 144.342 207.804 144.228 208.231L143.761 209.973ZM143.948 209.483L142.504 214.874C142.421 214.901 142.307 214.924 142.161 214.942C142.023 214.97 141.873 214.983 141.714 214.983C141.394 214.983 141.174 214.929 141.053 214.82C140.932 214.711 140.909 214.516 140.984 214.234L142.257 209.483H143.948ZM149.404 208.898H152.237C152.27 208.952 152.289 209.039 152.295 209.157C152.303 209.265 152.289 209.388 152.253 209.524C152.192 209.751 152.091 209.919 151.949 210.028C151.818 210.128 151.659 210.178 151.472 210.178H149.062L149.404 208.898ZM149.384 209.973H147.749L148.234 208.163C148.387 207.591 148.629 207.128 148.959 206.774C149.291 206.411 149.69 206.148 150.157 205.985C150.626 205.812 151.137 205.726 151.692 205.726C152.293 205.726 152.728 205.803 152.997 205.957C153.275 206.112 153.374 206.339 153.294 206.638C153.257 206.774 153.195 206.901 153.107 207.019C153.021 207.128 152.927 207.219 152.823 207.292C152.673 207.219 152.487 207.16 152.264 207.115C152.051 207.069 151.822 207.046 151.578 207.046C151.089 207.046 150.708 207.137 150.434 207.319C150.159 207.5 149.965 207.804 149.851 208.231L149.384 209.973ZM149.572 209.483L148.127 214.874C148.045 214.901 147.931 214.924 147.785 214.942C147.646 214.97 147.497 214.983 147.337 214.983C147.018 214.983 146.797 214.929 146.676 214.82C146.555 214.711 146.532 214.516 146.607 214.234L147.88 209.483H149.572Z" fill="#2F6295"/>
<path d="M158.086 215.092C158.734 215.092 159.341 214.965 159.907 214.711C160.485 214.448 160.983 214.062 161.401 213.554C161.829 213.045 162.143 212.415 162.345 211.661C162.557 210.872 162.574 210.227 162.398 209.728C162.222 209.229 161.898 208.862 161.425 208.626C160.962 208.39 160.388 208.272 159.702 208.272C159.204 208.272 158.737 208.331 158.302 208.449C157.878 208.558 157.508 208.694 157.191 208.857C156.963 208.975 156.788 209.102 156.666 209.238C156.548 209.365 156.461 209.533 156.405 209.742L155.208 214.207H156.9L158.056 209.892C158.228 209.81 158.421 209.737 158.636 209.674C158.85 209.61 159.089 209.579 159.352 209.579C159.699 209.579 159.99 209.651 160.224 209.796C160.46 209.933 160.617 210.15 160.697 210.45C160.776 210.749 160.748 211.153 160.612 211.661C160.42 212.378 160.108 212.909 159.678 213.254C159.256 213.599 158.759 213.772 158.186 213.772C157.848 213.772 157.568 213.713 157.346 213.595C157.133 213.477 156.957 213.345 156.817 213.2L156.434 214.629C156.59 214.747 156.811 214.852 157.097 214.942C157.381 215.042 157.71 215.092 158.086 215.092ZM155.336 213.731L154.544 216.685C154.469 216.966 154.492 217.161 154.613 217.27C154.732 217.388 154.951 217.447 155.27 217.447C155.43 217.447 155.579 217.434 155.718 217.406C155.864 217.388 155.978 217.366 156.061 217.338L157.02 213.758L155.336 213.731Z" fill="#2F6295"/>
<path d="M165.879 213.853C166.17 213.853 166.436 213.826 166.676 213.772C166.919 213.708 167.105 213.644 167.235 213.581L167.658 212.002L166.198 212.138C165.805 212.165 165.487 212.247 165.244 212.383C165.001 212.519 164.844 212.719 164.774 212.982C164.703 213.245 164.754 213.458 164.926 213.622C165.101 213.776 165.419 213.853 165.879 213.853ZM167.318 208.272C168.23 208.272 168.902 208.462 169.335 208.843C169.781 209.216 169.895 209.805 169.679 210.613L168.836 213.758C168.778 213.976 168.675 214.148 168.528 214.275C168.393 214.393 168.228 214.502 168.032 214.602C167.73 214.747 167.365 214.865 166.937 214.956C166.515 215.056 166.051 215.106 165.544 215.106C164.613 215.106 163.927 214.933 163.484 214.588C163.043 214.234 162.915 213.713 163.1 213.023C163.26 212.424 163.581 211.961 164.064 211.634C164.555 211.307 165.191 211.108 165.972 211.035L167.954 210.845L168.019 210.6C168.119 210.227 168.059 209.96 167.84 209.796C167.621 209.633 167.276 209.551 166.806 209.551C166.44 209.551 166.071 209.597 165.699 209.687C165.327 209.778 164.987 209.887 164.681 210.014C164.606 209.942 164.547 209.846 164.504 209.728C164.472 209.601 164.475 209.47 164.511 209.334C164.599 209.007 164.845 208.771 165.25 208.626C165.545 208.508 165.873 208.421 166.236 208.367C166.6 208.303 166.961 208.272 167.318 208.272Z" fill="#2F6295"/>
<path d="M172.818 211.866H171.127L171.663 209.864C171.724 209.638 171.827 209.447 171.971 209.293C172.125 209.138 172.324 208.993 172.567 208.857C172.895 208.685 173.289 208.548 173.748 208.449C174.209 208.34 174.689 208.285 175.187 208.285C176.061 208.285 176.429 208.539 176.293 209.048C176.259 209.175 176.209 209.293 176.142 209.402C176.078 209.501 176.006 209.592 175.928 209.674C175.839 209.656 175.726 209.638 175.59 209.619C175.454 209.601 175.311 209.592 175.161 209.592C174.813 209.592 174.479 209.628 174.159 209.701C173.839 209.774 173.56 209.869 173.321 209.987L172.818 211.866ZM172.942 211.403L172.012 214.874C171.929 214.901 171.815 214.924 171.67 214.942C171.531 214.97 171.381 214.983 171.222 214.983C170.902 214.983 170.682 214.929 170.561 214.82C170.44 214.711 170.417 214.516 170.492 214.234L171.276 211.307L172.942 211.403Z" fill="#2F6295"/>
<path d="M178.542 211.307L178.104 212.941C178.024 213.241 178.061 213.454 178.215 213.581C178.369 213.708 178.61 213.772 178.939 213.772C179.089 213.772 179.259 213.753 179.447 213.717C179.637 213.672 179.801 213.622 179.938 213.567C179.984 213.64 180.021 213.731 180.048 213.84C180.078 213.939 180.074 214.057 180.038 214.194C179.97 214.448 179.786 214.661 179.486 214.833C179.186 215.006 178.764 215.092 178.219 215.092C177.486 215.092 176.946 214.933 176.599 214.616C176.261 214.298 176.189 213.776 176.384 213.05L176.851 211.307H178.542ZM178.588 208.612H181.364C181.387 208.666 181.402 208.753 181.408 208.871C181.414 208.989 181.4 209.111 181.366 209.238C181.305 209.465 181.208 209.633 181.076 209.742C180.946 209.842 180.787 209.892 180.599 209.892H178.245L178.588 208.612ZM176.752 211.675L178.065 206.774C178.148 206.747 178.263 206.72 178.412 206.693C178.56 206.665 178.714 206.652 178.873 206.652C179.184 206.652 179.398 206.711 179.517 206.829C179.638 206.938 179.661 207.133 179.585 207.414L178.444 211.675H176.752Z" fill="#2F6295"/>
<path d="M188.169 212.029H186.464L186.803 210.763C186.913 210.355 186.871 210.055 186.678 209.864C186.494 209.674 186.2 209.579 185.796 209.579C185.505 209.579 185.232 209.615 184.977 209.687C184.723 209.76 184.493 209.846 184.288 209.946L183.73 212.029H182.039L182.626 209.837C182.684 209.619 182.774 209.442 182.895 209.306C183.025 209.17 183.206 209.039 183.438 208.912C183.756 208.739 184.154 208.589 184.629 208.462C185.114 208.335 185.625 208.272 186.16 208.272C187.109 208.272 187.792 208.476 188.209 208.884C188.635 209.293 188.741 209.896 188.527 210.695L188.169 212.029ZM183.912 211.348L182.968 214.874C182.885 214.901 182.771 214.924 182.625 214.942C182.486 214.97 182.337 214.983 182.177 214.983C181.858 214.983 181.638 214.929 181.516 214.82C181.395 214.711 181.372 214.516 181.448 214.234L182.221 211.348H183.912ZM188.352 211.348L187.407 214.874C187.325 214.901 187.211 214.924 187.065 214.942C186.916 214.97 186.763 214.983 186.603 214.983C186.283 214.983 186.063 214.929 185.942 214.82C185.821 214.711 185.798 214.516 185.873 214.234L186.646 211.348H188.352Z" fill="#2F6295"/>
<path d="M190.859 211.376L194.81 210.831C194.877 210.477 194.818 210.173 194.632 209.919C194.449 209.656 194.122 209.524 193.653 209.524C193.164 209.524 192.712 209.687 192.295 210.014C191.888 210.341 191.598 210.808 191.426 211.416L191.286 212.097C191.213 212.687 191.331 213.123 191.641 213.404C191.95 213.685 192.401 213.826 192.993 213.826C193.388 213.826 193.764 213.772 194.122 213.663C194.492 213.545 194.799 213.418 195.042 213.281C195.145 213.354 195.216 213.454 195.258 213.581C195.311 213.699 195.318 213.831 195.279 213.976C195.218 214.203 195.056 214.402 194.794 214.575C194.534 214.738 194.209 214.865 193.818 214.956C193.437 215.047 193.011 215.092 192.541 215.092C191.818 215.092 191.208 214.965 190.713 214.711C190.229 214.448 189.901 214.057 189.73 213.54C189.558 213.023 189.575 212.383 189.779 211.621C189.927 211.067 190.142 210.581 190.423 210.164C190.713 209.746 191.046 209.397 191.422 209.116C191.808 208.834 192.216 208.626 192.647 208.489C193.09 208.344 193.537 208.272 193.988 208.272C194.599 208.272 195.102 208.394 195.496 208.639C195.901 208.884 196.177 209.22 196.326 209.647C196.475 210.073 196.476 210.559 196.33 211.103C196.262 211.357 196.145 211.548 195.98 211.675C195.816 211.793 195.614 211.866 195.372 211.893L190.62 212.533L190.859 211.376Z" fill="#2F6295"/>
<path d="M199.258 211.866H197.566L198.102 209.864C198.163 209.638 198.266 209.447 198.411 209.293C198.565 209.138 198.763 208.993 199.007 208.857C199.335 208.685 199.728 208.548 200.187 208.449C200.649 208.34 201.128 208.285 201.626 208.285C202.5 208.285 202.869 208.539 202.733 209.048C202.699 209.175 202.648 209.293 202.581 209.402C202.517 209.501 202.446 209.592 202.368 209.674C202.278 209.656 202.166 209.638 202.03 209.619C201.894 209.601 201.751 209.592 201.6 209.592C201.253 209.592 200.919 209.628 200.599 209.701C200.278 209.774 199.999 209.869 199.761 209.987L199.258 211.866ZM199.382 211.403L198.451 214.874C198.369 214.901 198.255 214.924 198.109 214.942C197.97 214.97 197.821 214.983 197.661 214.983C197.342 214.983 197.121 214.929 197 214.82C196.879 214.711 196.856 214.516 196.932 214.234L197.716 211.307L199.382 211.403Z" fill="#2F6295"/>
</svg>
