<svg width="32" height="32" viewBox="0 0 32 32" fill="none" xmlns="http://www.w3.org/2000/svg">
<path d="M4.80001 1.59998C4.37567 1.59998 3.9687 1.76855 3.66864 2.0686C3.36858 2.36866 3.20001 2.77563 3.20001 3.19998C3.20001 3.62432 3.36858 4.03129 3.66864 4.33135C3.9687 4.6314 4.37567 4.79998 4.80001 4.79998H6.75201L7.24001 6.75518C7.24486 6.77769 7.25019 6.80009 7.25601 6.82238L9.42881 15.5104L8.00001 16.9376C5.98401 18.9536 7.41121 22.4 10.2624 22.4H24C24.4244 22.4 24.8313 22.2314 25.1314 21.9313C25.4314 21.6313 25.6 21.2243 25.6 20.8C25.6 20.3756 25.4314 19.9687 25.1314 19.6686C24.8313 19.3685 24.4244 19.2 24 19.2H10.2624L11.8624 17.6H22.4C22.6971 17.5998 22.9882 17.517 23.2409 17.3607C23.4935 17.2044 23.6976 16.9809 23.8304 16.7152L28.6304 7.11518C28.7523 6.8713 28.8098 6.60034 28.7975 6.32799C28.7853 6.05564 28.7036 5.79094 28.5603 5.55901C28.417 5.32708 28.2169 5.13561 27.9788 5.00277C27.7407 4.86993 27.4726 4.80012 27.2 4.79998H10.048L9.55201 2.81118C9.46534 2.46518 9.26554 2.15807 8.98434 1.93862C8.70315 1.71918 8.3567 1.59998 8.00001 1.59998H4.80001ZM25.6 26.4C25.6 27.0365 25.3472 27.6469 24.8971 28.097C24.447 28.5471 23.8365 28.8 23.2 28.8C22.5635 28.8 21.953 28.5471 21.503 28.097C21.0529 27.6469 20.8 27.0365 20.8 26.4C20.8 25.7635 21.0529 25.153 21.503 24.7029C21.953 24.2528 22.5635 24 23.2 24C23.8365 24 24.447 24.2528 24.8971 24.7029C25.3472 25.153 25.6 25.7635 25.6 26.4ZM10.4 28.8C11.0365 28.8 11.647 28.5471 12.0971 28.097C12.5472 27.6469 12.8 27.0365 12.8 26.4C12.8 25.7635 12.5472 25.153 12.0971 24.7029C11.647 24.2528 11.0365 24 10.4 24C9.76349 24 9.15304 24.2528 8.70296 24.7029C8.25287 25.153 8.00001 25.7635 8.00001 26.4C8.00001 27.0365 8.25287 27.6469 8.70296 28.097C9.15304 28.5471 9.76349 28.8 10.4 28.8V28.8Z" fill="#F5F6F8"/>
</svg>
