<svg width="48" height="48" viewBox="0 0 48 48" fill="none" xmlns="http://www.w3.org/2000/svg">
<rect width="48" height="48" rx="24" fill="black"/>
<path d="M30.6929 19.3288C32.8535 20.8789 35.5005 21.7909 38.3593 21.7909V16.27C37.8183 16.2702 37.2786 16.2135 36.7493 16.101V20.4467C33.8907 20.4467 31.2441 19.5347 29.0828 17.9848V29.2512C29.0828 34.8873 24.5302 39.4559 18.9145 39.4559C16.8191 39.4559 14.8716 38.8201 13.2538 37.7298C15.1003 39.6246 17.6753 40.7999 20.5242 40.7999C26.1402 40.7999 30.6931 36.2313 30.6931 30.5951V19.3288H30.6929ZM32.679 13.759C31.5748 12.5483 30.8497 10.9837 30.6929 9.25404V8.54395H29.1671C29.5512 10.7424 30.8611 12.6206 32.679 13.759ZM16.8057 33.4049C16.1888 32.5931 15.8554 31.6 15.8569 30.5789C15.8569 28.0012 17.9392 25.9112 20.5083 25.9112C20.9871 25.911 21.463 25.9846 21.9193 26.1299V20.4857C21.3861 20.4123 20.8479 20.3812 20.31 20.3926V24.7858C19.8533 24.6405 19.3772 24.5667 18.8983 24.5672C16.3292 24.5672 14.247 26.657 14.247 29.2351C14.247 31.0579 15.2878 32.6361 16.8057 33.4049Z" fill="#FF004F"/>
<path d="M29.0828 17.9846C31.2441 19.5346 33.8907 20.4466 36.7493 20.4466V16.1009C35.1536 15.7598 33.741 14.923 32.679 13.759C30.861 12.6205 29.5512 10.7423 29.1671 8.54395H25.1595V30.5948C25.1504 33.1655 23.0716 35.247 20.508 35.247C18.9974 35.247 17.6553 34.5244 16.8053 33.4049C15.2875 32.6361 14.2467 31.0578 14.2467 29.2352C14.2467 26.6574 16.329 24.5673 18.898 24.5673C19.3903 24.5673 19.8647 24.6442 20.3097 24.7859V20.3927C14.7927 20.5071 10.3557 25.0311 10.3557 30.595C10.3557 33.3724 11.4606 35.8903 13.2539 37.73C14.8717 38.8201 16.8192 39.456 18.9146 39.456C24.5304 39.456 29.0829 34.8871 29.0829 29.2512V17.9846H29.0828Z" fill="white"/>
<path d="M36.7493 16.1009V14.9259C35.3104 14.9281 33.8998 14.5237 32.679 13.7589C33.7597 14.9463 35.1827 15.765 36.7493 16.1009ZM29.1672 8.54399C29.1305 8.33389 29.1024 8.1224 29.0829 7.91011V7.20001H23.5494V29.2511C23.5406 31.8215 21.4619 33.903 18.8981 33.903C18.1454 33.903 17.4347 33.7237 16.8054 33.4051C17.6553 34.5244 18.9974 35.247 20.5081 35.247C23.0714 35.247 25.1506 33.1657 25.1595 30.595V8.54399H29.1672ZM20.31 20.3928V19.1419C19.8476 19.0784 19.3815 19.0466 18.9147 19.0468C13.2985 19.0467 8.74579 23.6155 8.74579 29.2511C8.74579 32.7843 10.5351 35.8981 13.254 37.7298C11.4607 35.8902 10.3558 33.3722 10.3558 30.5949C10.3558 25.0311 14.7927 20.5072 20.31 20.3928Z" fill="#00F2EA"/>
</svg>
