<svg width="33" height="44" viewBox="0 0 33 44" fill="none" xmlns="http://www.w3.org/2000/svg">
<path d="M33 0C32.9416 0 32.8815 0 32.8204 0C32.7593 0 32.7027 0 32.647 0H0.633281C0.577589 0 0.519209 0 0.459924 0C0.400639 0 0.337762 0 0.280273 0C0.522802 0.472481 0.691675 0.869511 0.798567 1.13629C1.57286 3.06933 1.73993 4.72211 1.73724 5.51078V6.52671V28.6713V42.0553C1.73724 43.02 2.97683 43.4197 3.53374 42.6311C6.67224 38.1829 11.4779 34.2477 16.5387 34.1749C21.7575 34.0995 26.5721 38.0518 29.7484 42.6059C30.3017 43.3982 31.5449 42.9985 31.5449 42.0328V6.52671V5.51078C31.5449 4.72211 31.7092 3.06933 32.4835 1.13629C32.5886 0.869511 32.7575 0.471583 33 0Z" fill="url(#paint0_linear_135_3388)"/>
<defs>
<linearGradient id="paint0_linear_135_3388" x1="16.6303" y1="1.7462" x2="16.2252" y2="78.7058" gradientUnits="userSpaceOnUse">
<stop offset="0.19" stop-color="#F53E3E"/>
<stop offset="0.92" stop-color="#661D1D"/>
</linearGradient>
</defs>
</svg>
