<svg width="18" height="20" viewBox="0 0 18 20" fill="none" xmlns="http://www.w3.org/2000/svg">
<path fill-rule="evenodd" clip-rule="evenodd" d="M7.79961 0.399902C7.57681 0.400021 7.35845 0.462162 7.16898 0.579365C6.9795 0.696568 6.8264 0.864205 6.72681 1.0635L5.85801 2.7999H1.79961C1.48135 2.7999 1.17612 2.92633 0.951081 3.15137C0.726038 3.37642 0.599609 3.68164 0.599609 3.9999C0.599609 4.31816 0.726038 4.62339 0.951081 4.84843C1.17612 5.07347 1.48135 5.1999 1.79961 5.1999V17.1999C1.79961 17.8364 2.05247 18.4469 2.50255 18.897C2.95264 19.347 3.56309 19.5999 4.19961 19.5999H13.7996C14.4361 19.5999 15.0466 19.347 15.4967 18.897C15.9468 18.4469 16.1996 17.8364 16.1996 17.1999V5.1999C16.5179 5.1999 16.8231 5.07347 17.0481 4.84843C17.2732 4.62339 17.3996 4.31816 17.3996 3.9999C17.3996 3.68164 17.2732 3.37642 17.0481 3.15137C16.8231 2.92633 16.5179 2.7999 16.1996 2.7999H12.1412L11.2724 1.0635C11.1728 0.864205 11.0197 0.696568 10.8302 0.579365C10.6408 0.462162 10.4224 0.400021 10.1996 0.399902H7.79961ZM5.39961 7.5999C5.39961 7.28164 5.52604 6.97642 5.75108 6.75137C5.97612 6.52633 6.28135 6.3999 6.59961 6.3999C6.91787 6.3999 7.22309 6.52633 7.44814 6.75137C7.67318 6.97642 7.79961 7.28164 7.79961 7.5999V14.7999C7.79961 15.1182 7.67318 15.4234 7.44814 15.6484C7.22309 15.8735 6.91787 15.9999 6.59961 15.9999C6.28135 15.9999 5.97612 15.8735 5.75108 15.6484C5.52604 15.4234 5.39961 15.1182 5.39961 14.7999V7.5999ZM11.3996 6.3999C11.0813 6.3999 10.7761 6.52633 10.5511 6.75137C10.326 6.97642 10.1996 7.28164 10.1996 7.5999V14.7999C10.1996 15.1182 10.326 15.4234 10.5511 15.6484C10.7761 15.8735 11.0813 15.9999 11.3996 15.9999C11.7179 15.9999 12.0231 15.8735 12.2481 15.6484C12.4732 15.4234 12.5996 15.1182 12.5996 14.7999V7.5999C12.5996 7.28164 12.4732 6.97642 12.2481 6.75137C12.0231 6.52633 11.7179 6.3999 11.3996 6.3999Z" fill="#EF0909"/>
</svg>
